STARTFONT 2.1
COMMENT
COMMENT Converted from OpenType font "Gotham Black Regular.ttf" by "otf2bdf 3.0".
COMMENT
FONT -FreeType-Gotham Black-Medium-R-Normal--75-540-100-100-P-400-ISO10646-1
SIZE 54 100 100
FONTBOUNDINGBOX 86 73 -3 -13
STARTPROPERTIES 19
FOUNDRY "FreeType"
FAMILY_NAME "Gotham Black"
WEIGHT_NAME "Medium"
SLANT "R"
SETWIDTH_NAME "Normal"
ADD_STYLE_NAME ""
PIXEL_SIZE 75
POINT_SIZE 540
RESOLUTION_X 100
RESOLUTION_Y 100
SPACING "P"
AVERAGE_WIDTH 400
CHARSET_REGISTRY "ISO10646"
CHARSET_ENCODING "1"
FONT_ASCENT 54
FONT_DESCENT 12
COPYRIGHT "HTF Gotham  Copr. 2003 The Hoefler Type Foundry, Inc. Info: www.typography.com"
_OTF_FONTFILE "Gotham Black Regular.ttf"
_OTF_PSNAME "GothamBlack"
ENDPROPERTIES
CHARS 95
STARTCHAR 0020
ENCODING 32
SWIDTH 280 0
DWIDTH 21 0
BBX 0 0 0 0
BITMAP
ENDCHAR
STARTCHAR 0021
ENCODING 33
SWIDTH 320 0
DWIDTH 24 0
BBX 16 53 4 0
BITMAP
FFFF
FFFF
FFFF
FFFF
FFFF
FFFF
FFFF
FFFF
FFFF
7FFF
7FFF
7FFF
7FFE
7FFE
7FFE
7FFE
3FFE
3FFE
3FFC
3FFC
3FFC
3FFC
3FFC
1FFC
1FFC
1FF8
1FF8
1FF8
1FF8
0FF8
0FF8
0FF8
0FF0
0FF0
0FF0
0000
0000
0000
0000
0000
0000
7FFF
7FFF
7FFF
7FFF
7FFF
7FFF
7FFF
7FFF
7FFF
7FFF
7FFF
7FFF
ENDCHAR
STARTCHAR 0022
ENCODING 34
SWIDTH 533 0
DWIDTH 40 0
BBX 36 27 3 26
BITMAP
7FFF8FFFF0
7FFF0FFFF0
7FFF0FFFE0
7FFF0FFFE0
7FFE0FFFE0
7FFE0FFFC0
7FFC0FFFC0
7FFC0FFF80
7FFC0FFF80
7FF80FFF80
7FF80FFF00
FFF80FFF00
FFF00FFF00
FFF00FFE00
FFF00FFE00
FFE01FFC00
FFE01FFC00
FFC01FFC00
FFC01FF800
FFC01FF800
FF801FF800
FF801FF000
FF801FF000
FF001FF000
FF001FE000
FF001FE000
FE001FC000
ENDCHAR
STARTCHAR 0023
ENCODING 35
SWIDTH 706 0
DWIDTH 53 0
BBX 49 53 2 0
BITMAP
0007FF003FF800
0007FF007FF000
0007FF007FF000
0007FF007FF000
0007FE007FF000
000FFE007FF000
000FFE007FE000
000FFE00FFE000
000FFE00FFE000
000FFE00FFE000
1FFFFFFFFFFF80
1FFFFFFFFFFF80
1FFFFFFFFFFF80
1FFFFFFFFFFF80
1FFFFFFFFFFF80
1FFFFFFFFFFF80
1FFFFFFFFFFF80
1FFFFFFFFFFF80
1FFFFFFFFFFF80
1FFFFFFFFFFF80
1FFFFFFFFFFF80
1FFFFFFFFFFF80
007FF003FF8000
007FF003FF8000
007FF003FF0000
007FF003FF0000
007FE007FF0000
007FE007FF0000
007FE007FF0000
00FFE007FF0000
00FFE007FE0000
FFFFFFFFFFFC00
FFFFFFFFFFFC00
FFFFFFFFFFFC00
FFFFFFFFFFFC00
FFFFFFFFFFFC00
FFFFFFFFFFFC00
FFFFFFFFFFFC00
FFFFFFFFFFFC00
FFFFFFFFFFFC00
FFFFFFFFFFFC00
FFFFFFFFFFFC00
FFFFFFFFFFFC00
03FF803FF80000
03FF803FF80000
03FF003FF80000
07FF003FF80000
07FF003FF00000
07FF007FF00000
07FF007FF00000
07FF007FF00000
07FE007FF00000
0FFE007FF00000
ENDCHAR
STARTCHAR 0024
ENCODING 36
SWIDTH 666 0
DWIDTH 50 0
BBX 46 64 2 -7
BITMAP
00000FF00000
00000FF00000
00000FF00000
00000FF00000
00003FF00000
0003FFFF8000
001FFFFFF800
007FFFFFFE00
00FFFFFFFF80
01FFFFFFFFE0
03FFFFFFFFF0
07FFFFFFFFE0
0FFFFFFFFFE0
0FFFFFFFFFC0
1FFFFFFFFF80
1FFFE7FFFF80
1FFF87F3FF00
1FFF07F07F00
3FFF07F01E00
3FFF07F00C00
3FFF07F00000
3FFF87F00000
3FFFC7F00000
1FFFFFF00000
1FFFFFF00000
1FFFFFFE0000
0FFFFFFFC000
0FFFFFFFF800
07FFFFFFFE00
03FFFFFFFF00
01FFFFFFFF80
00FFFFFFFFC0
003FFFFFFFE0
000FFFFFFFF0
0003FFFFFFF0
00007FFFFFF8
000007FFFFF8
000007FFFFF8
000007F3FFF8
020007F0FFFC
038007F0FFFC
07C007F07FFC
0FF007F07FFC
0FFC07F0FFF8
1FFF87F1FFF8
3FFFFFF7FFF8
3FFFFFFFFFF8
7FFFFFFFFFF0
FFFFFFFFFFF0
FFFFFFFFFFE0
3FFFFFFFFFC0
0FFFFFFFFF80
03FFFFFFFF00
00FFFFFFFE00
001FFFFFF800
0003FFFFC000
00000FF80000
00000FF00000
00000FF00000
00000FF00000
00000FF00000
00000FF00000
00000FF00000
00000FF00000
ENDCHAR
STARTCHAR 0025
ENCODING 37
SWIDTH 893 0
DWIDTH 67 0
BBX 62 54 3 -1
BITMAP
007F80000003F800
01FFE0000007FF00
07FFF800000FFE00
0FFFFC00001FFC00
1FFFFE00003FF800
3FFFFF00003FF000
3FFFFF80007FF000
7FFFFF8000FFE000
7FE1FFC001FFC000
FFC0FFC001FF8000
FFC07FC003FF0000
FF807FE007FF0000
FF807FE00FFE0000
FF803FE00FFC0000
FF803FE01FF80000
FF807FE03FF80000
FF807FE07FF00000
FFC07FC07FE00000
FFC0FFC0FFC00000
7FE1FFC1FFC00000
7FFFFF83FF800000
7FFFFF83FF000000
3FFFFF07FE000000
1FFFFE0FFC000000
0FFFFC1FFC000000
07FFF83FF8000000
01FFE03FF007F000
007F807FE03FFE00
000000FFE0FFFF00
000001FFC1FFFFC0
000001FF83FFFFC0
000003FF07FFFFE0
000007FE07FFFFF0
00000FFE0FFFFFF0
00000FFC0FFC3FF8
00001FF81FF81FF8
00003FF01FF80FF8
00007FF01FF00FFC
00007FE01FF007FC
0000FFC01FF007FC
0001FF801FF007FC
0003FF001FF007FC
0003FF001FF00FFC
0007FE001FF80FF8
000FFC001FF81FF8
001FF8000FFC3FF8
001FF8000FFFFFF0
003FF00007FFFFF0
007FE00007FFFFE0
00FFC00003FFFFC0
01FF800001FFFF80
01FF800000FFFF00
03FF0000003FFE00
04000000000FF000
ENDCHAR
STARTCHAR 0026
ENCODING 38
SWIDTH 693 0
DWIDTH 52 0
BBX 49 55 2 -1
BITMAP
00001FF0000000
0000FFFE000000
0003FFFF800000
000FFFFFC00000
001FFFFFE00000
003FFFFFF00000
007FFFFFF80000
007FFFFFF80000
00FFFFFFFC0000
00FFFFFFFC0000
01FFFFFFFC0000
01FFF87FFE0000
01FFF01FFE0000
01FFE01FFE0000
01FFE01FFE0000
01FFE01FFE0000
01FFE01FFE0000
01FFE01FFC0000
01FFF03FFC0000
00FFF07FFC0000
00FFF8FFF80000
00FFFFFFF00000
007FFFFFF00000
007FFFFFE00000
003FFFFF800000
007FFFFF018000
01FFFFFE03E000
07FFFFF803F800
0FFFFFFC07FE00
1FFFFFFE07FF80
3FFFFFFF0FFF80
3FFFFFFF8FFF00
7FFFFFFFDFFE00
7FFFBFFFFFFE00
FFFF1FFFFFFC00
FFFE0FFFFFFC00
FFFE07FFFFF800
FFFC03FFFFF000
FFFC01FFFFF000
FFFC00FFFFE000
FFFC007FFFC000
FFFE003FFFE000
FFFF007FFFF000
FFFF81FFFFF800
FFFFFFFFFFFC00
7FFFFFFFFFFE00
7FFFFFFFFFFF00
3FFFFFFFFFFF80
3FFFFFFFFFFF00
1FFFFFFFFFFE00
0FFFFFFF9FFC00
03FFFFFE0FF000
01FFFFF807E000
007FFFE0038000
0007FE00010000
ENDCHAR
STARTCHAR 0027
ENCODING 39
SWIDTH 280 0
DWIDTH 21 0
BBX 17 27 3 26
BITMAP
7FFF80
7FFF80
7FFF00
7FFF00
7FFF00
7FFE00
7FFE00
7FFC00
7FFC00
7FFC00
7FF800
FFF800
FFF800
FFF000
FFF000
FFF000
FFE000
FFE000
FFC000
FFC000
FFC000
FF8000
FF8000
FF8000
FF0000
FF0000
FE0000
ENDCHAR
STARTCHAR 0028
ENCODING 40
SWIDTH 440 0
DWIDTH 33 0
BBX 28 65 3 -11
BITMAP
00000600
00000E00
00003F00
0000FF80
0001FF80
0003FFC0
000FFFC0
001FFFE0
003FFFF0
007FFFE0
00FFFFC0
01FFFF80
01FFFF00
03FFFE00
07FFFC00
07FFF800
0FFFF000
0FFFE000
1FFFC000
1FFFC000
3FFF8000
3FFF8000
3FFF0000
7FFF0000
7FFE0000
7FFE0000
7FFE0000
7FFE0000
FFFE0000
FFFC0000
FFFC0000
FFFC0000
FFFC0000
FFFC0000
FFFC0000
FFFC0000
FFFC0000
7FFE0000
7FFE0000
7FFE0000
7FFE0000
7FFF0000
3FFF0000
3FFF8000
3FFF8000
1FFFC000
1FFFC000
0FFFE000
0FFFF000
07FFF800
07FFF800
03FFFC00
01FFFF00
01FFFF80
00FFFFC0
007FFFE0
003FFFF0
001FFFE0
000FFFE0
0003FFC0
0001FF80
0000FF80
00003F00
00000E00
00000600
ENDCHAR
STARTCHAR 0029
ENCODING 41
SWIDTH 440 0
DWIDTH 33 0
BBX 28 65 2 -11
BITMAP
02000000
07800000
0FC00000
0FF00000
1FF80000
1FFE0000
3FFF0000
7FFF8000
7FFFC000
FFFFE000
3FFFF000
0FFFF800
07FFFC00
03FFFC00
01FFFE00
00FFFF00
007FFF00
007FFF80
003FFF80
001FFFC0
001FFFC0
000FFFC0
000FFFE0
0007FFE0
0007FFE0
0007FFE0
0007FFF0
0003FFF0
0003FFF0
0003FFF0
0003FFF0
0003FFF0
0003FFF0
0003FFF0
0003FFF0
0003FFF0
0003FFF0
0003FFF0
0007FFF0
0007FFE0
0007FFE0
0007FFE0
000FFFE0
000FFFC0
001FFFC0
001FFFC0
003FFF80
007FFF80
007FFF00
00FFFF00
01FFFE00
03FFFE00
07FFFC00
0FFFF800
3FFFF000
7FFFE000
FFFFC000
7FFF8000
3FFF0000
1FFE0000
1FF80000
0FF00000
07C00000
07800000
02000000
ENDCHAR
STARTCHAR 002A
ENCODING 42
SWIDTH 426 0
DWIDTH 32 0
BBX 28 28 2 25
BITMAP
003FC000
003FC000
003F8000
001F8000
081F8100
1C1F8780
3F1F8F80
3F9F9FC0
7FCF3FE0
7FEF7FE0
FFFFFFF0
1FFFFF80
07FFFC00
00FFF000
00FFF000
03FFFC00
1FFFFF80
FFFFFFF0
7FEF7FE0
7FCF3FE0
3F9F1FC0
3F1F8F80
1C1F8780
081F8100
001F8000
003F8000
003FC000
003FC000
ENDCHAR
STARTCHAR 002B
ENCODING 43
SWIDTH 640 0
DWIDTH 48 0
BBX 38 39 5 7
BITMAP
000FFFC000
000FFFC000
000FFFC000
000FFFC000
000FFFC000
000FFFC000
000FFFC000
000FFFC000
000FFFC000
000FFFC000
000FFFC000
000FFFC000
000FFFC000
000FFFC000
FFFFFFFFFC
FFFFFFFFFC
FFFFFFFFFC
FFFFFFFFFC
FFFFFFFFFC
FFFFFFFFFC
FFFFFFFFFC
FFFFFFFFFC
FFFFFFFFFC
FFFFFFFFFC
FFFFFFFFFC
FFFFFFFFFC
000FFFC000
000FFFC000
000FFFC000
000FFFC000
000FFFC000
000FFFC000
000FFFC000
000FFFC000
000FFFC000
000FFFC000
000FFFC000
000FFFC000
000FFFC000
ENDCHAR
STARTCHAR 002C
ENCODING 44
SWIDTH 280 0
DWIDTH 21 0
BBX 16 27 2 -12
BITMAP
7FFF
7FFF
7FFF
7FFF
7FFF
7FFF
7FFF
7FFF
7FFF
7FFF
7FFF
7FFF
7FFF
7FFF
7FFF
01FF
01FF
01FE
03FE
07FE
0FFC
7FFC
FFF8
FFF0
FFC0
FF80
7800
ENDCHAR
STARTCHAR 002D
ENCODING 45
SWIDTH 413 0
DWIDTH 31 0
BBX 25 12 3 17
BITMAP
FFFFFF80
FFFFFF80
FFFFFF80
FFFFFF80
FFFFFF80
FFFFFF80
FFFFFF80
FFFFFF80
FFFFFF80
FFFFFF80
FFFFFF80
FFFFFF80
ENDCHAR
STARTCHAR 002E
ENCODING 46
SWIDTH 280 0
DWIDTH 21 0
BBX 15 15 3 0
BITMAP
FFFE
FFFE
FFFE
FFFE
FFFE
FFFE
FFFE
FFFE
FFFE
FFFE
FFFE
FFFE
FFFE
FFFE
FFFE
ENDCHAR
STARTCHAR 002F
ENCODING 47
SWIDTH 533 0
DWIDTH 40 0
BBX 45 70 -3 -10
BITMAP
000000007FF8
000000007FF0
00000000FFF0
00000000FFE0
00000001FFE0
00000001FFC0
00000003FFC0
00000003FF80
00000007FF80
00000007FF00
0000000FFF00
0000000FFE00
0000001FFE00
0000001FFE00
0000003FFC00
0000003FFC00
0000003FF800
0000007FF800
0000007FF000
000000FFF000
000000FFE000
000001FFE000
000001FFC000
000003FFC000
000003FF8000
000007FF8000
000007FF0000
00000FFF0000
00000FFE0000
00001FFE0000
00001FFC0000
00003FFC0000
00003FFC0000
00007FF80000
00007FF80000
00007FF00000
0000FFF00000
0000FFE00000
0001FFE00000
0001FFC00000
0003FFC00000
0003FF800000
0007FF800000
0007FF000000
000FFF000000
000FFE000000
001FFE000000
001FFC000000
003FFC000000
003FF8000000
007FF8000000
007FF8000000
00FFF0000000
00FFF0000000
01FFE0000000
01FFE0000000
01FFC0000000
03FFC0000000
03FF80000000
07FF80000000
07FF00000000
0FFF00000000
0FFE00000000
1FFE00000000
1FFC00000000
3FFC00000000
3FF800000000
7FF800000000
7FF000000000
FFF000000000
ENDCHAR
STARTCHAR 0030
ENCODING 48
SWIDTH 733 0
DWIDTH 55 0
BBX 49 55 3 -1
BITMAP
00001FF8000000
0000FFFF800000
0003FFFFE00000
000FFFFFF80000
001FFFFFFC0000
007FFFFFFF0000
00FFFFFFFF8000
01FFFFFFFFC000
03FFFFFFFFC000
03FFFFFFFFE000
07FFFFFFFFF000
0FFFFFFFFFF800
0FFFFC1FFFF800
1FFFF007FFFC00
1FFFE003FFFC00
3FFFC001FFFE00
3FFF8001FFFE00
3FFF8000FFFE00
7FFF0000FFFE00
7FFF00007FFF00
7FFF00007FFF00
7FFE00007FFF00
FFFE00003FFF00
FFFE00003FFF00
FFFE00003FFF80
FFFE00003FFF80
FFFE00003FFF80
FFFE00003FFF80
FFFE00003FFF80
FFFE00003FFF80
FFFE00003FFF80
FFFE00003FFF00
FFFE00003FFF00
7FFE00007FFF00
7FFF00007FFF00
7FFF00007FFF00
7FFF00007FFE00
3FFF8000FFFE00
3FFF8000FFFE00
3FFFC001FFFC00
1FFFE003FFFC00
1FFFF007FFFC00
0FFFFC1FFFF800
0FFFFFFFFFF800
07FFFFFFFFF000
07FFFFFFFFE000
03FFFFFFFFC000
01FFFFFFFFC000
00FFFFFFFF8000
007FFFFFFF0000
003FFFFFFC0000
000FFFFFF80000
0007FFFFE00000
0000FFFF800000
00001FF8000000
ENDCHAR
STARTCHAR 0031
ENCODING 49
SWIDTH 426 0
DWIDTH 32 0
BBX 26 53 1 0
BITMAP
0007FFC0
003FFFC0
03FFFFC0
1FFFFFC0
FFFFFFC0
FFFFFFC0
FFFFFFC0
FFFFFFC0
7FFFFFC0
7FFFFFC0
7FFFFFC0
7FFFFFC0
3FFFFFC0
3FFFFFC0
3E1FFFC0
201FFFC0
001FFFC0
001FFFC0
001FFFC0
001FFFC0
001FFFC0
001FFFC0
001FFFC0
001FFFC0
001FFFC0
001FFFC0
001FFFC0
001FFFC0
001FFFC0
001FFFC0
001FFFC0
001FFFC0
001FFFC0
001FFFC0
001FFFC0
001FFFC0
001FFFC0
001FFFC0
001FFFC0
001FFFC0
001FFFC0
001FFFC0
001FFFC0
001FFFC0
001FFFC0
001FFFC0
001FFFC0
001FFFC0
001FFFC0
001FFFC0
001FFFC0
001FFFC0
001FFFC0
ENDCHAR
STARTCHAR 0032
ENCODING 50
SWIDTH 626 0
DWIDTH 47 0
BBX 42 53 2 0
BITMAP
0000FFE00000
0007FFFE0000
003FFFFF8000
00FFFFFFE000
01FFFFFFF000
03FFFFFFF800
07FFFFFFFC00
0FFFFFFFFE00
1FFFFFFFFE00
3FFFFFFFFF00
7FFFFFFFFF00
3FFFFFFFFF80
1FFFC0FFFF80
0FFF007FFF80
07FE003FFF80
01FC001FFF80
00F8001FFFC0
0070001FFF80
0020001FFF80
0000001FFF80
0000003FFF80
0000003FFF80
0000007FFF80
000000FFFF00
000001FFFF00
000003FFFE00
000007FFFE00
00001FFFFC00
00003FFFF800
00007FFFF000
0001FFFFE000
0003FFFFC000
0007FFFF0000
001FFFFE0000
003FFFFC0000
007FFFF00000
00FFFFE00000
03FFFF800000
07FFFF000000
0FFFFE000000
3FFFF8000000
7FFFFFFFFFC0
FFFFFFFFFFC0
FFFFFFFFFFC0
FFFFFFFFFFC0
FFFFFFFFFFC0
FFFFFFFFFFC0
FFFFFFFFFFC0
FFFFFFFFFFC0
FFFFFFFFFFC0
FFFFFFFFFFC0
FFFFFFFFFFC0
FFFFFFFFFFC0
ENDCHAR
STARTCHAR 0033
ENCODING 51
SWIDTH 626 0
DWIDTH 47 0
BBX 43 54 1 -1
BITMAP
0FFFFFFFFFC0
0FFFFFFFFFC0
0FFFFFFFFFC0
0FFFFFFFFFC0
0FFFFFFFFFC0
0FFFFFFFFFC0
0FFFFFFFFFC0
0FFFFFFFFFC0
0FFFFFFFFFC0
0FFFFFFFFFC0
0FFFFFFFFFC0
0FFFFFFFFF80
000001FFFF00
000003FFFC00
000007FFF800
00000FFFF000
00001FFFE000
00003FFFC000
00007FFF8000
0000FFFF0000
0001FFFC0000
0003FFFC0000
0007FFFF8000
000FFFFFE000
000FFFFFF800
0007FFFFFC00
0007FFFFFE00
0007FFFFFF00
0007FFFFFF80
0003FFFFFF80
0003FFFFFFC0
0000007FFFC0
0000001FFFE0
0000000FFFE0
0000000FFFE0
00000007FFE0
00400007FFE0
00E00007FFE0
01F0000FFFE0
03FC000FFFE0
07FF001FFFC0
0FFFC07FFFC0
1FFFFFFFFFC0
3FFFFFFFFF80
7FFFFFFFFF80
FFFFFFFFFF00
3FFFFFFFFF00
1FFFFFFFFE00
0FFFFFFFFC00
03FFFFFFF800
01FFFFFFE000
007FFFFFC000
000FFFFE0000
0000FFF00000
ENDCHAR
STARTCHAR 0034
ENCODING 52
SWIDTH 693 0
DWIDTH 52 0
BBX 49 53 1 0
BITMAP
0000001FFFC000
0000003FFFC000
0000007FFFC000
000000FFFFC000
000001FFFFC000
000001FFFFC000
000003FFFFC000
000007FFFFC000
00000FFFFFC000
00001FFFFFC000
00003FFFFFC000
00003FFFFFC000
00007FFFFFC000
0000FFFFFFC000
0001FFFFFFC000
0003FFFFFFC000
0007FFFFFFC000
0007FFEFFFC000
000FFFCFFFC000
001FFFCFFFC000
003FFF8FFFC000
007FFF0FFFC000
00FFFE0FFFC000
00FFFC0FFFC000
01FFFC0FFFC000
03FFF80FFFC000
07FFF00FFFC000
0FFFE00FFFC000
1FFFC00FFFC000
1FFF800FFFC000
3FFF800FFFC000
7FFF000FFFC000
FFFFFFFFFFFF80
FFFFFFFFFFFF80
FFFFFFFFFFFF80
7FFFFFFFFFFF80
7FFFFFFFFFFF80
7FFFFFFFFFFF80
7FFFFFFFFFFF80
3FFFFFFFFFFF80
3FFFFFFFFFFF80
3FFFFFFFFFFF80
3FFFFFFFFFFF80
0000000FFFC000
0000000FFFC000
0000000FFFC000
0000000FFFC000
0000000FFFC000
0000000FFFC000
0000000FFFC000
0000000FFFC000
0000000FFFC000
0000000FFFC000
ENDCHAR
STARTCHAR 0035
ENCODING 53
SWIDTH 626 0
DWIDTH 47 0
BBX 43 54 1 -1
BITMAP
03FFFFFFFF80
03FFFFFFFF80
03FFFFFFFF80
03FFFFFFFF80
03FFFFFFFF80
03FFFFFFFF80
03FFFFFFFF80
03FFFFFFFF80
07FFFFFFFF80
07FFFFFFFF80
07FFFFFFFF80
07FFFFFFFF80
07FF80000000
07FF80000000
07FF80000000
07FF80000000
07FF80000000
07FF80000000
07FF87FC0000
07FFBFFF8000
07FFFFFFF000
07FFFFFFF800
07FFFFFFFC00
07FFFFFFFE00
07FFFFFFFF00
07FFFFFFFF80
0FFFFFFFFF80
03FFFFFFFFC0
01FFFFFFFFC0
007FC07FFFE0
001E001FFFE0
0008000FFFE0
00000007FFE0
00000007FFE0
00000007FFE0
00000007FFE0
00800007FFE0
00C00007FFE0
01F00007FFE0
03F8000FFFE0
07FE001FFFE0
0FFFC07FFFC0
1FFFFFFFFFC0
3FFFFFFFFFC0
3FFFFFFFFF80
7FFFFFFFFF00
FFFFFFFFFF00
3FFFFFFFFE00
0FFFFFFFFC00
07FFFFFFF800
01FFFFFFE000
007FFFFF8000
001FFFFE0000
0001FFE00000
ENDCHAR
STARTCHAR 0036
ENCODING 54
SWIDTH 666 0
DWIDTH 50 0
BBX 43 55 3 -1
BITMAP
00001FFC0000
0001FFFFC000
0007FFFFF000
001FFFFFFC00
003FFFFFFF00
007FFFFFFFC0
00FFFFFFFF80
01FFFFFFFF80
03FFFFFFFF00
07FFFFFFFE00
07FFFFFFFE00
0FFFFFFFFC00
1FFFF807F800
1FFFE001F800
1FFFC0007000
3FFF80002000
3FFF80000000
3FFF00000000
7FFF00000000
7FFF03FC0000
7FFE1FFFC000
7FFE7FFFF000
7FFEFFFFF800
FFFFFFFFFC00
FFFFFFFFFE00
FFFFFFFFFF00
FFFFFFFFFF80
FFFFFFFFFF80
FFFFFFFFFFC0
FFFFFFFFFFC0
FFFFE07FFFE0
FFFF801FFFE0
FFFF000FFFE0
FFFE000FFFE0
FFFE0007FFE0
FFFE0007FFE0
7FFE0007FFE0
7FFE0007FFE0
7FFE0007FFE0
7FFE0007FFE0
3FFE000FFFE0
3FFF000FFFE0
3FFF801FFFC0
1FFFE07FFFC0
1FFFFFFFFF80
0FFFFFFFFF80
0FFFFFFFFF00
07FFFFFFFF00
03FFFFFFFE00
01FFFFFFFC00
00FFFFFFF800
003FFFFFE000
001FFFFF8000
0007FFFE0000
00007FF00000
ENDCHAR
STARTCHAR 0037
ENCODING 55
SWIDTH 613 0
DWIDTH 46 0
BBX 41 53 3 0
BITMAP
FFFFFFFFFF80
FFFFFFFFFF80
FFFFFFFFFF80
FFFFFFFFFF80
FFFFFFFFFF80
FFFFFFFFFF80
FFFFFFFFFF80
FFFFFFFFFF80
FFFFFFFFFF80
FFFFFFFFFF80
FFFFFFFFFF80
FFFFFFFFFF80
000000FFFF00
000000FFFF00
000001FFFE00
000001FFFC00
000003FFFC00
000003FFF800
000007FFF800
000007FFF000
00000FFFF000
00001FFFE000
00001FFFE000
00003FFFC000
00003FFF8000
00007FFF8000
00007FFF0000
0000FFFF0000
0001FFFE0000
0001FFFE0000
0003FFFC0000
0003FFFC0000
0007FFF80000
0007FFF00000
000FFFF00000
001FFFE00000
001FFFE00000
003FFFC00000
003FFFC00000
007FFF800000
007FFF800000
00FFFF000000
00FFFF000000
01FFFE000000
03FFFC000000
03FFFC000000
07FFF8000000
07FFF8000000
0FFFF0000000
0FFFF0000000
1FFFE0000000
3FFFE0000000
3FFFC0000000
ENDCHAR
STARTCHAR 0038
ENCODING 56
SWIDTH 626 0
DWIDTH 47 0
BBX 43 54 2 -1
BITMAP
0000FFE00000
000FFFFE0000
003FFFFF8000
00FFFFFFE000
01FFFFFFF000
03FFFFFFFC00
07FFFFFFFC00
0FFFFFFFFE00
1FFFFFFFFF00
1FFFFFFFFF00
3FFFFFFFFF80
3FFFE07FFF80
3FFF803FFF80
3FFF001FFF80
3FFF000FFF80
3FFE000FFF80
3FFE000FFF80
3FFE000FFF80
3FFF000FFF80
1FFF001FFF00
1FFF803FFF00
0FFFE07FFE00
07FFFFFFFC00
03FFFFFFF800
01FFFFFFF000
007FFFFFE000
01FFFFFFF000
03FFFFFFF800
0FFFFFFFFE00
1FFFFFFFFF00
3FFFFFFFFF80
3FFFC07FFF80
7FFF001FFFC0
7FFE000FFFC0
FFFE0007FFE0
FFFC0007FFE0
FFFC0007FFE0
FFFC0007FFE0
FFFC0007FFE0
FFFE0007FFE0
FFFE000FFFE0
FFFF001FFFE0
7FFFC07FFFE0
7FFFFFFFFFC0
7FFFFFFFFFC0
3FFFFFFFFF80
1FFFFFFFFF80
0FFFFFFFFF00
07FFFFFFFE00
03FFFFFFFC00
01FFFFFFF000
007FFFFFC000
000FFFFF0000
0000FFF00000
ENDCHAR
STARTCHAR 0039
ENCODING 57
SWIDTH 666 0
DWIDTH 50 0
BBX 44 55 3 -1
BITMAP
0000FFE00000
0007FFFC0000
003FFFFF0000
007FFFFFC000
01FFFFFFE000
03FFFFFFF800
07FFFFFFFC00
0FFFFFFFFC00
1FFFFFFFFE00
1FFFFFFFFF00
3FFFFFFFFF00
3FFFE07FFF80
7FFF803FFF80
7FFF001FFFC0
7FFE000FFFC0
7FFE0007FFC0
FFFE0007FFE0
FFFC0007FFE0
FFFC0007FFE0
FFFC0007FFE0
FFFE0007FFE0
FFFE0007FFE0
FFFE000FFFE0
7FFF000FFFF0
7FFF801FFFF0
7FFFE07FFFF0
7FFFFFFFFFF0
3FFFFFFFFFF0
3FFFFFFFFFF0
1FFFFFFFFFE0
1FFFFFFFFFE0
0FFFFFFFFFE0
07FFFFFFFFE0
03FFFFF7FFE0
00FFFFE7FFE0
003FFF8FFFE0
0007FC0FFFC0
0000000FFFC0
0000001FFFC0
0180001FFF80
01C0003FFF80
03F000FFFF80
07FE03FFFF00
07FFFFFFFF00
0FFFFFFFFE00
1FFFFFFFFC00
1FFFFFFFFC00
3FFFFFFFF800
7FFFFFFFF000
3FFFFFFFE000
1FFFFFFFC000
07FFFFFF0000
01FFFFFE0000
007FFFF00000
0007FF800000
ENDCHAR
STARTCHAR 003A
ENCODING 58
SWIDTH 293 0
DWIDTH 22 0
BBX 14 41 4 0
BITMAP
FFFC
FFFC
FFFC
FFFC
FFFC
FFFC
FFFC
FFFC
FFFC
FFFC
FFFC
FFFC
FFFC
FFFC
FFFC
0000
0000
0000
0000
0000
0000
0000
0000
0000
0000
0000
FFFC
FFFC
FFFC
FFFC
FFFC
FFFC
FFFC
FFFC
FFFC
FFFC
FFFC
FFFC
FFFC
FFFC
FFFC
ENDCHAR
STARTCHAR 003B
ENCODING 59
SWIDTH 293 0
DWIDTH 22 0
BBX 16 54 2 -13
BITMAP
3FFF
3FFF
3FFF
3FFF
3FFF
3FFF
3FFF
3FFF
3FFF
3FFF
3FFF
3FFF
3FFF
3FFF
3FFF
0000
0000
0000
0000
0000
0000
0000
0000
0000
0000
0000
3FFF
3FFF
3FFF
3FFF
3FFF
3FFF
3FFF
3FFF
3FFF
3FFF
3FFF
3FFF
3FFF
3FFF
3FFF
01FF
01FF
01FF
01FF
03FE
07FE
1FFC
FFFC
FFF8
FFF0
7FE0
7F80
7C00
ENDCHAR
STARTCHAR 003C
ENCODING 60
SWIDTH 640 0
DWIDTH 48 0
BBX 37 43 5 5
BITMAP
0000000008
0000000078
00000001F8
0000000FF8
0000003FF8
000001FFF8
000007FFF8
00003FFFF8
0000FFFFF8
0007FFFFF8
001FFFFFF8
00FFFFFFF8
03FFFFFFF8
1FFFFFFFF8
7FFFFFFFC0
FFFFFFFE00
FFFFFFF000
FFFFFF8000
FFFFFC0000
FFFFE00000
FFFF000000
FFF8000000
FFFF000000
FFFFE00000
FFFFFC0000
FFFFFF8000
FFFFFFF000
FFFFFFFE00
7FFFFFFFC0
1FFFFFFFF8
03FFFFFFF8
00FFFFFFF8
001FFFFFF8
0007FFFFF8
0000FFFFF8
00003FFFF8
000007FFF8
000001FFF8
0000003FF8
0000000FF8
00000001F8
0000000078
0000000008
ENDCHAR
STARTCHAR 003D
ENCODING 61
SWIDTH 640 0
DWIDTH 48 0
BBX 36 32 6 10
BITMAP
FFFFFFFFF0
FFFFFFFFF0
FFFFFFFFF0
FFFFFFFFF0
FFFFFFFFF0
FFFFFFFFF0
FFFFFFFFF0
FFFFFFFFF0
FFFFFFFFF0
FFFFFFFFF0
FFFFFFFFF0
FFFFFFFFF0
0000000000
0000000000
0000000000
0000000000
0000000000
0000000000
0000000000
0000000000
FFFFFFFFF0
FFFFFFFFF0
FFFFFFFFF0
FFFFFFFFF0
FFFFFFFFF0
FFFFFFFFF0
FFFFFFFFF0
FFFFFFFFF0
FFFFFFFFF0
FFFFFFFFF0
FFFFFFFFF0
FFFFFFFFF0
ENDCHAR
STARTCHAR 003E
ENCODING 62
SWIDTH 640 0
DWIDTH 48 0
BBX 37 43 6 5
BITMAP
8000000000
F000000000
FC00000000
FF80000000
FFE0000000
FFFC000000
FFFF000000
FFFFE00000
FFFFF80000
FFFFFF0000
FFFFFFC000
FFFFFFF800
FFFFFFFF00
7FFFFFFFC0
0FFFFFFFF8
01FFFFFFF8
003FFFFFF8
0007FFFFF8
0000FFFFF8
00001FFFF8
000003FFF8
0000007FF8
000003FFF8
00001FFFF8
0000FFFFF8
0007FFFFF8
003FFFFFF8
01FFFFFFF8
0FFFFFFFF8
7FFFFFFFC0
FFFFFFFF00
FFFFFFF800
FFFFFFC000
FFFFFF0000
FFFFF80000
FFFFE00000
FFFF000000
FFFC000000
FFE0000000
FF80000000
FC00000000
F000000000
8000000000
ENDCHAR
STARTCHAR 003F
ENCODING 63
SWIDTH 546 0
DWIDTH 41 0
BBX 38 53 1 0
BITMAP
0007FF8000
007FFFF000
01FFFFFC00
07FFFFFF00
1FFFFFFF80
3FFFFFFFC0
7FFFFFFFE0
FFFFFFFFF0
7FFFFFFFF0
7FFFFFFFF8
3FFFFFFFF8
1FFFFFFFFC
0FFE07FFFC
07F001FFFC
07C001FFFC
038000FFFC
010000FFFC
000000FFFC
000001FFFC
000003FFF8
000007FFF8
00007FFFF8
000FFFFFF0
001FFFFFF0
000FFFFFE0
000FFFFFC0
000FFFFF80
000FFFFE00
000FFFF800
000FFFE000
0007FF0000
0007FE0000
0007FE0000
0007FE0000
0007FE0000
0000000000
0000000000
0000000000
0000000000
0000000000
0000000000
003FFF8000
003FFF8000
003FFF8000
003FFF8000
003FFF8000
003FFF8000
003FFF8000
003FFF8000
003FFF8000
003FFF8000
003FFF8000
003FFF8000
ENDCHAR
STARTCHAR 0040
ENCODING 64
SWIDTH 960 0
DWIDTH 72 0
BBX 66 66 3 -12
BITMAP
0000000FFF00000000
000001FFFFF0000000
000007FFFFFE000000
00003FF001FF800000
00007F00001FE00000
0001F8000003F00000
0003E0000000FC0000
000F800000003E0000
001F000000001F0000
003E00000000078000
00780000000003C000
00F00000000001E000
01E00000000000F000
01E000000000007800
03C000000000003800
0780001FC000003C00
070000FFF080001E00
0F0003FFF87F000E00
0E0007FFFC7FF80F00
1E000FFFFE7FF80700
1C001FFFFFFFF00700
3C003FFFFFFFF00780
38007FFFFFFFF00380
38007FFFFFFFF00380
7800FFFFFFFFF00380
7000FFFFFFFFF003C0
7001FFFC1FFFE001C0
7001FFF807FFE001C0
7001FFF003FFE001C0
7003FFE003FFE001C0
F003FFC003FFE001C0
F003FFC003FFC001C0
F003FFC003FFC001C0
F003FFC003FFC001C0
F003FFC003FFC003C0
F003FFC007FFC00380
7003FFC00FFFC00380
7003FFE01FFF800380
7003FFF83FFF800780
7003FFFFFFFF800700
7003FFFFFFFF800700
7801FFFFFFFF800E00
3801FFFFFFFF801E00
3800FFFFFFFFC03C00
3C00FFFFFDFFE0F800
1C007FFFF9FFFFF800
1C003FFFF0FFFFE000
0E001FFFE07FFFC000
0E0007FF801FFF0000
070000FE0007FC0000
078000000000000000
038000000000000000
01C000000000000000
01E000000000000000
00F000000000000000
007800000000000000
003C00000000000000
001F00000000000000
000F80000000180000
0007E0000000780000
0001F8000001FC0000
0000FF00000FF00000
00003FF000FFC00000
000007FFFFFE000000
000001FFFFF8000000
0000000FFF00000000
ENDCHAR
STARTCHAR 0041
ENCODING 65
SWIDTH 800 0
DWIDTH 60 0
BBX 59 53 0 0
BITMAP
000001FFF8000000
000003FFF8000000
000003FFFC000000
000007FFFC000000
000007FFFE000000
00000FFFFE000000
00000FFFFF000000
00000FFFFF000000
00001FFFFF000000
00001FFFFF800000
00003FFFFF800000
00003FFFFFC00000
00003FFFFFC00000
00007FFFFFE00000
00007FFFFFE00000
0000FFFFFFE00000
0000FFFFFFF00000
0001FFFFFFF00000
0001FFFBFFF80000
0001FFF9FFF80000
0003FFF1FFF80000
0003FFF1FFFC0000
0007FFF0FFFC0000
0007FFE0FFFE0000
000FFFE07FFE0000
000FFFC07FFF0000
000FFFC07FFF0000
001FFFC03FFF0000
001FFF803FFF8000
003FFF801FFF8000
003FFF001FFFC000
007FFF001FFFC000
007FFFFFFFFFE000
007FFFFFFFFFE000
00FFFFFFFFFFE000
00FFFFFFFFFFF000
01FFFFFFFFFFF000
01FFFFFFFFFFF800
01FFFFFFFFFFF800
03FFFFFFFFFFF800
03FFFFFFFFFFFC00
07FFFFFFFFFFFC00
07FFFFFFFFFFFE00
0FFFE00000FFFE00
0FFFE00000FFFF00
0FFFE000007FFF00
1FFFC000007FFF00
1FFFC000007FFF80
3FFF8000003FFF80
3FFF8000003FFFC0
7FFF8000001FFFC0
7FFF0000001FFFE0
FFFF0000001FFFE0
ENDCHAR
STARTCHAR 0042
ENCODING 66
SWIDTH 720 0
DWIDTH 54 0
BBX 47 53 5 0
BITMAP
FFFFFFFF0000
FFFFFFFFF000
FFFFFFFFFC00
FFFFFFFFFE00
FFFFFFFFFF80
FFFFFFFFFFC0
FFFFFFFFFFC0
FFFFFFFFFFE0
FFFFFFFFFFE0
FFFFFFFFFFF0
FFFFFFFFFFF0
FFFFFFFFFFF0
FFFC001FFFF0
FFFC0007FFF0
FFFC0007FFF0
FFFC0003FFF0
FFFC0003FFF0
FFFC0003FFF0
FFFC0007FFE0
FFFC0007FFE0
FFFC001FFFC0
FFFFFFFFFFC0
FFFFFFFFFF80
FFFFFFFFFF00
FFFFFFFFFC00
FFFFFFFFF000
FFFFFFFFFE00
FFFFFFFFFF80
FFFFFFFFFFC0
FFFFFFFFFFE0
FFFFFFFFFFF0
FFFFFFFFFFF8
FFFC0007FFF8
FFFC0001FFFC
FFFC0000FFFC
FFFC0000FFFC
FFFC0000FFFC
FFFC0000FFFE
FFFC0000FFFE
FFFC0001FFFE
FFFC0007FFFC
FFFFFFFFFFFC
FFFFFFFFFFFC
FFFFFFFFFFFC
FFFFFFFFFFF8
FFFFFFFFFFF8
FFFFFFFFFFF0
FFFFFFFFFFE0
FFFFFFFFFFC0
FFFFFFFFFF80
FFFFFFFFFE00
FFFFFFFFF800
FFFFFFFF8000
ENDCHAR
STARTCHAR 0043
ENCODING 67
SWIDTH 733 0
DWIDTH 55 0
BBX 50 55 3 -1
BITMAP
000003FF800000
00003FFFF80000
0000FFFFFF0000
0003FFFFFFC000
000FFFFFFFE000
001FFFFFFFF800
007FFFFFFFFC00
00FFFFFFFFFE00
01FFFFFFFFFF00
03FFFFFFFFFF80
07FFFFFFFFFFC0
07FFFFFFFFFF80
0FFFFFFFFFFE00
0FFFFF01FFFC00
1FFFFC003FF800
3FFFF0001FF000
3FFFE0000FC000
3FFFC000078000
7FFF8000030000
7FFF8000000000
7FFF0000000000
FFFF0000000000
FFFF0000000000
FFFE0000000000
FFFE0000000000
FFFE0000000000
FFFE0000000000
FFFE0000000000
FFFE0000000000
FFFE0000000000
FFFE0000000000
FFFE0000000000
FFFF0000000000
FFFF0000000000
7FFF0000000000
7FFF8000000000
7FFF8000030000
3FFFC00003C000
3FFFE0000FE000
3FFFF0001FF800
1FFFFC003FFC00
1FFFFF01FFFF00
0FFFFFFFFFFF80
07FFFFFFFFFFC0
07FFFFFFFFFF80
03FFFFFFFFFF00
01FFFFFFFFFF00
00FFFFFFFFFE00
007FFFFFFFFC00
003FFFFFFFF000
000FFFFFFFE000
0007FFFFFF8000
0001FFFFFE0000
00003FFFF80000
000007FF800000
ENDCHAR
STARTCHAR 0044
ENCODING 68
SWIDTH 760 0
DWIDTH 57 0
BBX 50 53 5 0
BITMAP
FFFFFFE0000000
FFFFFFFE000000
FFFFFFFFC00000
FFFFFFFFF00000
FFFFFFFFFC0000
FFFFFFFFFE0000
FFFFFFFFFF8000
FFFFFFFFFFC000
FFFFFFFFFFE000
FFFFFFFFFFF000
FFFFFFFFFFF800
FFFFFFFFFFF800
FFFC00FFFFFC00
FFFC001FFFFE00
FFFC0007FFFE00
FFFC0003FFFE00
FFFC0001FFFF00
FFFC0000FFFF00
FFFC00007FFF00
FFFC00007FFF80
FFFC00003FFF80
FFFC00003FFF80
FFFC00003FFF80
FFFC00003FFF80
FFFC00003FFF80
FFFC00001FFFC0
FFFC00001FFFC0
FFFC00001FFF80
FFFC00003FFF80
FFFC00003FFF80
FFFC00003FFF80
FFFC00003FFF80
FFFC00003FFF80
FFFC00007FFF80
FFFC00007FFF00
FFFC0000FFFF00
FFFC0001FFFF00
FFFC0003FFFE00
FFFC0007FFFE00
FFFC001FFFFC00
FFFC007FFFFC00
FFFFFFFFFFF800
FFFFFFFFFFF000
FFFFFFFFFFF000
FFFFFFFFFFE000
FFFFFFFFFFC000
FFFFFFFFFF0000
FFFFFFFFFE0000
FFFFFFFFFC0000
FFFFFFFFF00000
FFFFFFFFC00000
FFFFFFFE000000
FFFFFFC0000000
ENDCHAR
STARTCHAR 0045
ENCODING 69
SWIDTH 666 0
DWIDTH 50 0
BBX 42 53 5 0
BITMAP
FFFFFFFFFFC0
FFFFFFFFFFC0
FFFFFFFFFFC0
FFFFFFFFFFC0
FFFFFFFFFFC0
FFFFFFFFFFC0
FFFFFFFFFFC0
FFFFFFFFFFC0
FFFFFFFFFFC0
FFFFFFFFFFC0
FFFFFFFFFFC0
FFFFFFFFFFC0
FFFC00000000
FFFC00000000
FFFC00000000
FFFC00000000
FFFC00000000
FFFC00000000
FFFC00000000
FFFC00000000
FFFC00000000
FFFFFFFFFE00
FFFFFFFFFE00
FFFFFFFFFE00
FFFFFFFFFE00
FFFFFFFFFE00
FFFFFFFFFE00
FFFFFFFFFE00
FFFFFFFFFE00
FFFFFFFFFE00
FFFFFFFFFE00
FFFFFFFFFE00
FFFC00000000
FFFC00000000
FFFC00000000
FFFC00000000
FFFC00000000
FFFC00000000
FFFC00000000
FFFC00000000
FFFC00000000
FFFFFFFFFFC0
FFFFFFFFFFC0
FFFFFFFFFFC0
FFFFFFFFFFC0
FFFFFFFFFFC0
FFFFFFFFFFC0
FFFFFFFFFFC0
FFFFFFFFFFC0
FFFFFFFFFFC0
FFFFFFFFFFC0
FFFFFFFFFFC0
FFFFFFFFFFC0
ENDCHAR
STARTCHAR 0046
ENCODING 70
SWIDTH 653 0
DWIDTH 49 0
BBX 42 53 5 0
BITMAP
FFFFFFFFFFC0
FFFFFFFFFFC0
FFFFFFFFFFC0
FFFFFFFFFFC0
FFFFFFFFFFC0
FFFFFFFFFFC0
FFFFFFFFFFC0
FFFFFFFFFFC0
FFFFFFFFFFC0
FFFFFFFFFFC0
FFFFFFFFFFC0
FFFFFFFFFFC0
FFFC00000000
FFFC00000000
FFFC00000000
FFFC00000000
FFFC00000000
FFFC00000000
FFFC00000000
FFFC00000000
FFFC00000000
FFFC00000000
FFFFFFFFFE00
FFFFFFFFFE00
FFFFFFFFFE00
FFFFFFFFFE00
FFFFFFFFFE00
FFFFFFFFFE00
FFFFFFFFFE00
FFFFFFFFFE00
FFFFFFFFFE00
FFFFFFFFFE00
FFFFFFFFFE00
FFFFFFFFFE00
FFFC00000000
FFFC00000000
FFFC00000000
FFFC00000000
FFFC00000000
FFFC00000000
FFFC00000000
FFFC00000000
FFFC00000000
FFFC00000000
FFFC00000000
FFFC00000000
FFFC00000000
FFFC00000000
FFFC00000000
FFFC00000000
FFFC00000000
FFFC00000000
FFFC00000000
ENDCHAR
STARTCHAR 0047
ENCODING 71
SWIDTH 773 0
DWIDTH 58 0
BBX 51 55 3 -1
BITMAP
000003FFE00000
00001FFFFE0000
0000FFFFFFC000
0003FFFFFFF000
000FFFFFFFFC00
001FFFFFFFFE00
007FFFFFFFFF80
00FFFFFFFFFF80
01FFFFFFFFFF00
03FFFFFFFFFE00
03FFFFFFFFFC00
07FFFFFFFFFC00
0FFFFF807FF800
0FFFFC001FF000
1FFFF80007E000
1FFFF00001C000
3FFFE000008000
3FFFC000000000
7FFF8000000000
7FFF8000000000
7FFF0000000000
FFFF0000000000
FFFE0000000000
FFFE001FFFFFE0
FFFE001FFFFFE0
FFFE001FFFFFE0
FFFE001FFFFFE0
FFFE001FFFFFE0
FFFE001FFFFFE0
FFFE001FFFFFE0
FFFE001FFFFFE0
FFFE001FFFFFE0
FFFE001FFFFFE0
FFFF001FFFFFE0
7FFF000007FFE0
7FFF800007FFE0
7FFF800007FFE0
3FFFC00007FFE0
3FFFE00007FFE0
3FFFF00007FFE0
1FFFF80007FFE0
1FFFFE000FFFE0
0FFFFF807FFFE0
07FFFFFFFFFFE0
07FFFFFFFFFFE0
03FFFFFFFFFFE0
01FFFFFFFFFFE0
00FFFFFFFFFFC0
007FFFFFFFFF80
001FFFFFFFFF00
000FFFFFFFFC00
0003FFFFFFF000
0000FFFFFFC000
00003FFFFE0000
000003FFE00000
ENDCHAR
STARTCHAR 0048
ENCODING 72
SWIDTH 760 0
DWIDTH 57 0
BBX 47 53 5 0
BITMAP
FFFC00007FFE
FFFC00007FFE
FFFC00007FFE
FFFC00007FFE
FFFC00007FFE
FFFC00007FFE
FFFC00007FFE
FFFC00007FFE
FFFC00007FFE
FFFC00007FFE
FFFC00007FFE
FFFC00007FFE
FFFC00007FFE
FFFC00007FFE
FFFC00007FFE
FFFC00007FFE
FFFC00007FFE
FFFC00007FFE
FFFC00007FFE
FFFC00007FFE
FFFC00007FFE
FFFFFFFFFFFE
FFFFFFFFFFFE
FFFFFFFFFFFE
FFFFFFFFFFFE
FFFFFFFFFFFE
FFFFFFFFFFFE
FFFFFFFFFFFE
FFFFFFFFFFFE
FFFFFFFFFFFE
FFFFFFFFFFFE
FFFFFFFFFFFE
FFFFFFFFFFFE
FFFC00007FFE
FFFC00007FFE
FFFC00007FFE
FFFC00007FFE
FFFC00007FFE
FFFC00007FFE
FFFC00007FFE
FFFC00007FFE
FFFC00007FFE
FFFC00007FFE
FFFC00007FFE
FFFC00007FFE
FFFC00007FFE
FFFC00007FFE
FFFC00007FFE
FFFC00007FFE
FFFC00007FFE
FFFC00007FFE
FFFC00007FFE
FFFC00007FFE
ENDCHAR
STARTCHAR 0049
ENCODING 73
SWIDTH 333 0
DWIDTH 25 0
BBX 15 53 5 0
BITMAP
FFFE
FFFE
FFFE
FFFE
FFFE
FFFE
FFFE
FFFE
FFFE
FFFE
FFFE
FFFE
FFFE
FFFE
FFFE
FFFE
FFFE
FFFE
FFFE
FFFE
FFFE
FFFE
FFFE
FFFE
FFFE
FFFE
FFFE
FFFE
FFFE
FFFE
FFFE
FFFE
FFFE
FFFE
FFFE
FFFE
FFFE
FFFE
FFFE
FFFE
FFFE
FFFE
FFFE
FFFE
FFFE
FFFE
FFFE
FFFE
FFFE
FFFE
FFFE
FFFE
FFFE
ENDCHAR
STARTCHAR 004A
ENCODING 74
SWIDTH 560 0
DWIDTH 42 0
BBX 38 54 0 -1
BITMAP
000000FFFC
000000FFFC
000000FFFC
000000FFFC
000000FFFC
000000FFFC
000000FFFC
000000FFFC
000000FFFC
000000FFFC
000000FFFC
000000FFFC
000000FFFC
000000FFFC
000000FFFC
000000FFFC
000000FFFC
000000FFFC
000000FFFC
000000FFFC
000000FFFC
000000FFFC
000000FFFC
000000FFFC
000000FFFC
000000FFFC
000000FFFC
000000FFFC
000000FFFC
000000FFFC
000000FFFC
000000FFFC
000000FFFC
000000FFFC
000000FFFC
000000FFFC
000000FFFC
004001FFFC
00E001FFFC
01F001FFFC
03F803FFFC
07FE0FFFF8
0FFFFFFFF8
1FFFFFFFF8
3FFFFFFFF0
7FFFFFFFF0
FFFFFFFFE0
3FFFFFFFC0
1FFFFFFF80
0FFFFFFF00
03FFFFFE00
01FFFFF800
003FFFE000
0007FF0000
ENDCHAR
STARTCHAR 004B
ENCODING 75
SWIDTH 733 0
DWIDTH 55 0
BBX 50 53 5 0
BITMAP
FFFC0000FFFFC0
FFFC0001FFFF00
FFFC0003FFFE00
FFFC0007FFFC00
FFFC000FFFFC00
FFFC000FFFF800
FFFC001FFFF000
FFFC003FFFE000
FFFC007FFFC000
FFFC00FFFF8000
FFFC01FFFF0000
FFFC01FFFF0000
FFFC03FFFE0000
FFFC07FFFC0000
FFFC0FFFF80000
FFFC1FFFF00000
FFFC3FFFE00000
FFFC3FFFC00000
FFFC7FFF800000
FFFCFFFF800000
FFFDFFFF000000
FFFFFFFE000000
FFFFFFFC000000
FFFFFFFC000000
FFFFFFFE000000
FFFFFFFF000000
FFFFFFFF000000
FFFFFFFF800000
FFFFFFFFC00000
FFFFFFFFC00000
FFFFFFFFE00000
FFFFFFFFF00000
FFFFFFFFF00000
FFFFFFFFF80000
FFFFEFFFFC0000
FFFFC7FFFC0000
FFFF83FFFE0000
FFFF03FFFF0000
FFFE01FFFF0000
FFFC00FFFF8000
FFFC00FFFFC000
FFFC007FFFC000
FFFC003FFFE000
FFFC003FFFF000
FFFC001FFFF000
FFFC000FFFF800
FFFC000FFFFC00
FFFC0007FFFC00
FFFC0003FFFE00
FFFC0003FFFF00
FFFC0001FFFF80
FFFC0000FFFF80
FFFC0000FFFFC0
ENDCHAR
STARTCHAR 004C
ENCODING 76
SWIDTH 613 0
DWIDTH 46 0
BBX 40 53 5 0
BITMAP
FFFC000000
FFFC000000
FFFC000000
FFFC000000
FFFC000000
FFFC000000
FFFC000000
FFFC000000
FFFC000000
FFFC000000
FFFC000000
FFFC000000
FFFC000000
FFFC000000
FFFC000000
FFFC000000
FFFC000000
FFFC000000
FFFC000000
FFFC000000
FFFC000000
FFFC000000
FFFC000000
FFFC000000
FFFC000000
FFFC000000
FFFC000000
FFFC000000
FFFC000000
FFFC000000
FFFC000000
FFFC000000
FFFC000000
FFFC000000
FFFC000000
FFFC000000
FFFC000000
FFFC000000
FFFC000000
FFFC000000
FFFC000000
FFFFFFFFFF
FFFFFFFFFF
FFFFFFFFFF
FFFFFFFFFF
FFFFFFFFFF
FFFFFFFFFF
FFFFFFFFFF
FFFFFFFFFF
FFFFFFFFFF
FFFFFFFFFF
FFFFFFFFFF
FFFFFFFFFF
ENDCHAR
STARTCHAR 004D
ENCODING 77
SWIDTH 866 0
DWIDTH 65 0
BBX 55 53 5 0
BITMAP
FFFE000000FFFE
FFFF000001FFFE
FFFF800001FFFE
FFFF800003FFFE
FFFFC00007FFFE
FFFFC00007FFFE
FFFFE0000FFFFE
FFFFF0001FFFFE
FFFFF0001FFFFE
FFFFF8003FFFFE
FFFFF8003FFFFE
FFFFFC007FFFFE
FFFFFE00FFFFFE
FFFFFE00FFFFFE
FFFFFF01FFFFFE
FFFFFF01FFFFFE
FFFFFF83FFFFFE
FFFFFFC7FFFFFE
FFFFFFC7FFFFFE
FFFFFFEFFFFFFE
FFFFFFFFFFFFFE
FFFFFFFFFFFFFE
FFFFFFFFFFFFFE
FFFFFFFFFF7FFE
FFFDFFFFFF7FFE
FFFCFFFFFE7FFE
FFFCFFFFFC7FFE
FFFC7FFFFC7FFE
FFFC3FFFF87FFE
FFFC3FFFF07FFE
FFFC1FFFF07FFE
FFFC0FFFE07FFE
FFFC0FFFE07FFE
FFFC07FFC07FFE
FFFC03FF807FFE
FFFC03FF807FFE
FFFC01FF007FFE
FFFC01FE007FFE
FFFC00FE007FFE
FFFC007C007FFE
FFFC0078007FFE
FFFC0038007FFE
FFFC0010007FFE
FFFC0000007FFE
FFFC0000007FFE
FFFC0000007FFE
FFFC0000007FFE
FFFC0000007FFE
FFFC0000007FFE
FFFC0000007FFE
FFFC0000007FFE
FFFC0000007FFE
FFFC0000007FFE
ENDCHAR
STARTCHAR 004E
ENCODING 78
SWIDTH 786 0
DWIDTH 59 0
BBX 49 53 5 0
BITMAP
FFFC00001FFF80
FFFC00001FFF80
FFFE00001FFF80
FFFF00001FFF80
FFFF80001FFF80
FFFF80001FFF80
FFFFC0001FFF80
FFFFE0001FFF80
FFFFF0001FFF80
FFFFF8001FFF80
FFFFF8001FFF80
FFFFFC001FFF80
FFFFFE001FFF80
FFFFFF001FFF80
FFFFFF001FFF80
FFFFFF801FFF80
FFFFFFC01FFF80
FFFFFFE01FFF80
FFFFFFE01FFF80
FFFFFFF01FFF80
FFFFFFF81FFF80
FFFFFFFC1FFF80
FFFFFFFE1FFF80
FFFFFFFE1FFF80
FFFFFFFF1FFF80
FFFDFFFF9FFF80
FFFCFFFFDFFF80
FFFC7FFFDFFF80
FFFC3FFFFFFF80
FFFC3FFFFFFF80
FFFC1FFFFFFF80
FFFC0FFFFFFF80
FFFC07FFFFFF80
FFFC07FFFFFF80
FFFC03FFFFFF80
FFFC01FFFFFF80
FFFC00FFFFFF80
FFFC007FFFFF80
FFFC007FFFFF80
FFFC003FFFFF80
FFFC001FFFFF80
FFFC000FFFFF80
FFFC000FFFFF80
FFFC0007FFFF80
FFFC0003FFFF80
FFFC0001FFFF80
FFFC0001FFFF80
FFFC0000FFFF80
FFFC00007FFF80
FFFC00003FFF80
FFFC00001FFF80
FFFC00001FFF80
FFFC00000FFF80
ENDCHAR
STARTCHAR 004F
ENCODING 79
SWIDTH 826 0
DWIDTH 62 0
BBX 56 55 3 -1
BITMAP
000001FFC00000
00001FFFFC0000
0000FFFFFF0000
0003FFFFFFC000
000FFFFFFFF000
001FFFFFFFF800
003FFFFFFFFE00
007FFFFFFFFF00
01FFFFFFFFFF80
01FFFFFFFFFFC0
03FFFFFFFFFFE0
07FFFFFFFFFFE0
0FFFFFFFFFFFF0
0FFFFF00FFFFF8
1FFFFC003FFFF8
1FFFF0000FFFFC
3FFFE00007FFFC
3FFFC00003FFFE
7FFF800001FFFE
7FFF800001FFFE
7FFF000000FFFF
FFFF000000FFFF
FFFE0000007FFF
FFFE0000007FFF
FFFE0000007FFF
FFFE0000007FFF
FFFE0000003FFF
FFFE0000003FFF
FFFE0000003FFF
FFFE0000007FFF
FFFE0000007FFF
FFFE0000007FFF
FFFF0000007FFF
FFFF000000FFFF
7FFF000000FFFF
7FFF800001FFFE
7FFFC00001FFFE
3FFFC00003FFFE
3FFFE00007FFFC
1FFFF8000FFFFC
1FFFFC003FFFF8
0FFFFF80FFFFF8
0FFFFFFFFFFFF0
07FFFFFFFFFFE0
03FFFFFFFFFFE0
03FFFFFFFFFFC0
01FFFFFFFFFF80
00FFFFFFFFFF00
003FFFFFFFFE00
001FFFFFFFF800
000FFFFFFFF000
0003FFFFFFC000
0000FFFFFF0000
00001FFFFC0000
000003FFC00000
ENDCHAR
STARTCHAR 0050
ENCODING 80
SWIDTH 666 0
DWIDTH 50 0
BBX 44 53 5 0
BITMAP
FFFFFFF00000
FFFFFFFF0000
FFFFFFFFC000
FFFFFFFFF000
FFFFFFFFFC00
FFFFFFFFFE00
FFFFFFFFFF00
FFFFFFFFFF00
FFFFFFFFFF80
FFFFFFFFFFC0
FFFFFFFFFFC0
FFFFFFFFFFE0
FFFC007FFFE0
FFFC001FFFE0
FFFC000FFFF0
FFFC000FFFF0
FFFC0007FFF0
FFFC0007FFF0
FFFC0007FFF0
FFFC0007FFF0
FFFC0007FFF0
FFFC0007FFF0
FFFC0007FFF0
FFFC000FFFF0
FFFC000FFFE0
FFFC001FFFE0
FFFC007FFFE0
FFFFFFFFFFC0
FFFFFFFFFFC0
FFFFFFFFFF80
FFFFFFFFFF00
FFFFFFFFFE00
FFFFFFFFFC00
FFFFFFFFF800
FFFFFFFFF000
FFFFFFFFC000
FFFFFFFE0000
FFFFFFE00000
FFFC00000000
FFFC00000000
FFFC00000000
FFFC00000000
FFFC00000000
FFFC00000000
FFFC00000000
FFFC00000000
FFFC00000000
FFFC00000000
FFFC00000000
FFFC00000000
FFFC00000000
FFFC00000000
FFFC00000000
ENDCHAR
STARTCHAR 0051
ENCODING 81
SWIDTH 826 0
DWIDTH 62 0
BBX 57 56 3 -2
BITMAP
000001FFC0000000
00001FFFFC000000
0000FFFFFF000000
0003FFFFFFC00000
000FFFFFFFF00000
001FFFFFFFF80000
003FFFFFFFFE0000
007FFFFFFFFF0000
01FFFFFFFFFF8000
01FFFFFFFFFFC000
03FFFFFFFFFFC000
07FFFFFFFFFFE000
0FFFFFFFFFFFF000
0FFFFF80FFFFF800
1FFFFC003FFFF800
1FFFF8000FFFFC00
3FFFE00007FFFC00
3FFFC00003FFFE00
7FFFC00001FFFE00
7FFF800001FFFE00
7FFF000000FFFE00
FFFF000000FFFF00
FFFF0000007FFF00
FFFE0000007FFF00
FFFE0000007FFF00
FFFE0000007FFF00
FFFE0000003FFF00
FFFE0000403FFF00
FFFE0000F03FFF00
FFFE0001F83FFF00
FFFE0003FC7FFF00
FFFE0007FE7FFF00
FFFE000FFF7FFF00
FFFF000FFFFFFF00
7FFF001FFFFFFF00
7FFF003FFFFFFE00
7FFF800FFFFFFE00
3FFFC007FFFFFE00
3FFFC003FFFFFC00
1FFFE001FFFFFC00
1FFFF8007FFFF800
0FFFFC007FFFF800
0FFFFF81FFFFF000
07FFFFFFFFFFF000
03FFFFFFFFFFF800
03FFFFFFFFFFFE00
01FFFFFFFFFFFF00
00FFFFFFFFFFFF80
003FFFFFFFFFFF00
001FFFFFFFFFFF00
000FFFFFFFFFFE00
0003FFFFFFC7FC00
0000FFFFFF03F800
00001FFFFC01F000
000003FFC000E000
0000000000004000
ENDCHAR
STARTCHAR 0052
ENCODING 82
SWIDTH 720 0
DWIDTH 54 0
BBX 48 53 5 0
BITMAP
FFFFFFFE0000
FFFFFFFFE000
FFFFFFFFF800
FFFFFFFFFE00
FFFFFFFFFF00
FFFFFFFFFF80
FFFFFFFFFFC0
FFFFFFFFFFE0
FFFFFFFFFFF0
FFFFFFFFFFF0
FFFFFFFFFFF8
FFFFFFFFFFF8
FFFC001FFFF8
FFFC0007FFFC
FFFC0003FFFC
FFFC0001FFFC
FFFC0001FFFC
FFFC0001FFFC
FFFC0000FFFC
FFFC0000FFFC
FFFC0001FFFC
FFFC0001FFFC
FFFC0001FFFC
FFFC0003FFFC
FFFC0007FFF8
FFFC001FFFF8
FFFFFFFFFFF0
FFFFFFFFFFF0
FFFFFFFFFFE0
FFFFFFFFFFC0
FFFFFFFFFFC0
FFFFFFFFFF00
FFFFFFFFFE00
FFFFFFFFFC00
FFFFFFFFF000
FFFFFFFFF000
FFFFFFFFF800
FFFC07FFF800
FFFC03FFFC00
FFFC03FFFE00
FFFC01FFFE00
FFFC00FFFF00
FFFC00FFFF80
FFFC007FFFC0
FFFC003FFFC0
FFFC003FFFE0
FFFC001FFFF0
FFFC000FFFF0
FFFC000FFFF8
FFFC0007FFFC
FFFC0003FFFC
FFFC0003FFFE
FFFC0001FFFF
ENDCHAR
STARTCHAR 0053
ENCODING 83
SWIDTH 653 0
DWIDTH 49 0
BBX 46 54 1 -1
BITMAP
00007FF80000
0007FFFFC000
001FFFFFF000
007FFFFFFE00
00FFFFFFFF80
01FFFFFFFFC0
03FFFFFFFFE0
07FFFFFFFFF0
0FFFFFFFFFE0
0FFFFFFFFFC0
1FFFFFFFFFC0
1FFFFFFFFF80
1FFFE03FFF00
3FFFC003FE00
3FFF8000FE00
3FFF80003C00
3FFF80000800
3FFFC0000000
3FFFE0000000
3FFFFC000000
1FFFFFC00000
1FFFFFFC0000
1FFFFFFF8000
0FFFFFFFF000
0FFFFFFFFC00
07FFFFFFFE00
03FFFFFFFF80
01FFFFFFFFC0
00FFFFFFFFE0
003FFFFFFFF0
000FFFFFFFF0
0001FFFFFFF8
00001FFFFFF8
000001FFFFF8
0000003FFFF8
00000007FFF8
01800003FFF8
03C00001FFFC
07F00001FFF8
07FC0001FFF8
0FFF0003FFF8
1FFFF00FFFF8
3FFFFFFFFFF8
7FFFFFFFFFF0
FFFFFFFFFFF0
FFFFFFFFFFE0
7FFFFFFFFFE0
3FFFFFFFFFC0
0FFFFFFFFF80
03FFFFFFFF00
01FFFFFFFC00
003FFFFFF000
0007FFFFC000
00003FFC0000
ENDCHAR
STARTCHAR 0054
ENCODING 84
SWIDTH 666 0
DWIDTH 50 0
BBX 46 53 2 0
BITMAP
FFFFFFFFFFFC
FFFFFFFFFFFC
FFFFFFFFFFFC
FFFFFFFFFFFC
FFFFFFFFFFFC
FFFFFFFFFFFC
FFFFFFFFFFFC
FFFFFFFFFFFC
FFFFFFFFFFFC
FFFFFFFFFFFC
FFFFFFFFFFFC
FFFFFFFFFFFC
0001FFFC0000
0001FFFC0000
0001FFFC0000
0001FFFC0000
0001FFFC0000
0001FFFC0000
0001FFFC0000
0001FFFC0000
0001FFFC0000
0001FFFC0000
0001FFFC0000
0001FFFC0000
0001FFFC0000
0001FFFC0000
0001FFFC0000
0001FFFC0000
0001FFFC0000
0001FFFC0000
0001FFFC0000
0001FFFC0000
0001FFFC0000
0001FFFC0000
0001FFFC0000
0001FFFC0000
0001FFFC0000
0001FFFC0000
0001FFFC0000
0001FFFC0000
0001FFFC0000
0001FFFC0000
0001FFFC0000
0001FFFC0000
0001FFFC0000
0001FFFC0000
0001FFFC0000
0001FFFC0000
0001FFFC0000
0001FFFC0000
0001FFFC0000
0001FFFC0000
0001FFFC0000
ENDCHAR
STARTCHAR 0055
ENCODING 85
SWIDTH 760 0
DWIDTH 57 0
BBX 49 54 4 -1
BITMAP
FFFE00003FFF80
FFFE00003FFF80
FFFE00003FFF80
FFFE00003FFF80
FFFE00003FFF80
FFFE00003FFF80
FFFE00003FFF80
FFFE00003FFF80
FFFE00003FFF80
FFFE00003FFF80
FFFE00003FFF80
FFFE00003FFF80
FFFE00003FFF80
FFFE00003FFF80
FFFE00003FFF80
FFFE00003FFF80
FFFE00003FFF80
FFFE00003FFF80
FFFE00003FFF80
FFFE00003FFF80
FFFE00003FFF80
FFFE00003FFF80
FFFE00003FFF80
FFFE00003FFF80
FFFE00003FFF80
FFFE00003FFF80
FFFE00003FFF80
FFFE00003FFF80
FFFE00003FFF80
FFFE00003FFF80
FFFE00003FFF80
FFFE00003FFF80
FFFE00003FFF80
FFFE00003FFF80
FFFE00003FFF80
FFFF00007FFF00
7FFF00007FFF00
7FFF8000FFFF00
7FFFC001FFFF00
7FFFE003FFFE00
3FFFF80FFFFE00
3FFFFFFFFFFE00
3FFFFFFFFFFC00
1FFFFFFFFFFC00
0FFFFFFFFFF800
0FFFFFFFFFF000
07FFFFFFFFF000
03FFFFFFFFE000
01FFFFFFFFC000
00FFFFFFFF8000
003FFFFFFE0000
001FFFFFF80000
0003FFFFE00000
00003FFC000000
ENDCHAR
STARTCHAR 0056
ENCODING 86
SWIDTH 760 0
DWIDTH 57 0
BBX 57 53 0 0
BITMAP
FFFF800000FFFF80
7FFF800000FFFF00
7FFFC00000FFFF00
3FFFC00001FFFE00
3FFFC00001FFFE00
1FFFE00001FFFC00
1FFFE00003FFFC00
1FFFE00003FFFC00
0FFFF00003FFF800
0FFFF00007FFF800
07FFF00007FFF000
07FFF8000FFFF000
07FFF8000FFFF000
03FFFC000FFFE000
03FFFC001FFFE000
01FFFC001FFFC000
01FFFE001FFFC000
01FFFE003FFFC000
00FFFE003FFF8000
00FFFF003FFF8000
007FFF007FFF0000
007FFF007FFF0000
007FFF807FFF0000
003FFF80FFFE0000
003FFF80FFFE0000
001FFFC1FFFC0000
001FFFC1FFFC0000
000FFFE1FFFC0000
000FFFE3FFF80000
000FFFE3FFF80000
0007FFF3FFF00000
0007FFF7FFF00000
0003FFF7FFF00000
0003FFFFFFE00000
0003FFFFFFE00000
0001FFFFFFC00000
0001FFFFFFC00000
0000FFFFFF800000
0000FFFFFF800000
0000FFFFFF800000
00007FFFFF000000
00007FFFFF000000
00003FFFFE000000
00003FFFFE000000
00003FFFFE000000
00001FFFFC000000
00001FFFFC000000
00000FFFF8000000
00000FFFF8000000
00000FFFF8000000
000007FFF0000000
000007FFF0000000
000003FFE0000000
ENDCHAR
STARTCHAR 0057
ENCODING 87
SWIDTH 1120 0
DWIDTH 84 0
BBX 82 53 1 0
BITMAP
FFFF00001FFE00003FFFC0
7FFF00003FFF00003FFF80
7FFF00003FFF00003FFF80
7FFF80003FFF00003FFF80
3FFF80007FFF80007FFF00
3FFF80007FFF80007FFF00
3FFF80007FFF80007FFF00
1FFFC000FFFFC000FFFE00
1FFFC000FFFFC000FFFE00
1FFFC000FFFFC000FFFE00
0FFFE001FFFFE001FFFC00
0FFFE001FFFFE001FFFC00
0FFFE001FFFFE001FFFC00
07FFF003FFFFF001FFF800
07FFF003FFFFF003FFF800
07FFF003FFFFF003FFF800
03FFF007FFFFF803FFF000
03FFF807FFFFF807FFF000
03FFF807FFFFF807FFF000
01FFF80FFFFFFC07FFE000
01FFFC0FFFFFFC0FFFE000
01FFFC0FFFFFFC0FFFE000
00FFFC1FFFFFFE0FFFC000
00FFFE1FFFFFFE0FFFC000
00FFFE1FFF7FFE1FFFC000
007FFE3FFF3FFF1FFF8000
007FFE3FFF3FFF1FFF8000
007FFF3FFE3FFF3FFF8000
003FFF7FFE1FFFBFFF0000
003FFF7FFE1FFFBFFF0000
003FFFFFFC0FFFFFFF0000
001FFFFFFC0FFFFFFE0000
001FFFFFF80FFFFFFE0000
001FFFFFF807FFFFFE0000
000FFFFFF807FFFFFC0000
000FFFFFF007FFFFFC0000
000FFFFFF003FFFFFC0000
0007FFFFF003FFFFF80000
0007FFFFE003FFFFF80000
0007FFFFE001FFFFF80000
0003FFFFE001FFFFF00000
0003FFFFC001FFFFF00000
0003FFFFC000FFFFF00000
0001FFFFC000FFFFE00000
0001FFFF8000FFFFE00000
0001FFFF80007FFFE00000
0000FFFF80007FFFC00000
0000FFFF00007FFFC00000
0000FFFF00003FFFC00000
00007FFF00003FFF800000
00007FFE00001FFF800000
00007FFE00001FFF800000
00007FFE00001FFF000000
ENDCHAR
STARTCHAR 0058
ENCODING 88
SWIDTH 733 0
DWIDTH 55 0
BBX 53 53 1 0
BITMAP
7FFFC0000FFFF0
3FFFC0001FFFE0
3FFFE0003FFFE0
1FFFE0003FFFC0
0FFFF0007FFF80
0FFFF800FFFF80
07FFF800FFFF00
03FFFC01FFFE00
03FFFE01FFFE00
01FFFE03FFFC00
00FFFF07FFF800
00FFFF07FFF800
007FFF8FFFF000
003FFFDFFFE000
003FFFDFFFE000
001FFFFFFFC000
000FFFFFFF8000
000FFFFFFF8000
0007FFFFFF0000
0007FFFFFE0000
0003FFFFFE0000
0001FFFFFC0000
0001FFFFF80000
0000FFFFF80000
00007FFFF00000
00007FFFE00000
00003FFFE00000
00007FFFF00000
0000FFFFF80000
0000FFFFF80000
0001FFFFFC0000
0003FFFFFE0000
0007FFFFFE0000
0007FFFFFF0000
000FFFFFFF8000
001FFFFFFF8000
001FFFFFFFC000
003FFFDFFFE000
007FFF9FFFE000
007FFF8FFFF000
00FFFF0FFFF800
01FFFE07FFF800
01FFFE03FFFC00
03FFFC03FFFE00
07FFFC01FFFE00
07FFF800FFFF00
0FFFF000FFFF80
1FFFF0007FFF80
1FFFE0003FFFC0
3FFFC0003FFFE0
7FFFC0001FFFE0
7FFF80001FFFF0
FFFF80000FFFF8
ENDCHAR
STARTCHAR 0059
ENCODING 89
SWIDTH 720 0
DWIDTH 54 0
BBX 54 53 0 0
BITMAP
FFFF800003FFFC
7FFF800007FFF8
7FFFC00007FFF8
3FFFC0000FFFF0
1FFFE0000FFFF0
1FFFE0001FFFE0
0FFFF0003FFFC0
0FFFF8003FFFC0
07FFF8007FFF80
03FFFC007FFF80
03FFFC00FFFF00
01FFFE00FFFE00
01FFFE01FFFE00
00FFFF03FFFC00
007FFF83FFFC00
007FFF87FFF800
003FFFC7FFF000
003FFFCFFFF000
001FFFEFFFE000
000FFFFFFFE000
000FFFFFFFC000
0007FFFFFF8000
0007FFFFFF8000
0003FFFFFF0000
0001FFFFFF0000
0001FFFFFE0000
0000FFFFFC0000
0000FFFFFC0000
00007FFFF80000
00003FFFF80000
00003FFFF00000
00001FFFE00000
00001FFFE00000
00000FFFC00000
00000FFFC00000
00000FFFC00000
00000FFFC00000
00000FFFC00000
00000FFFC00000
00000FFFC00000
00000FFFC00000
00000FFFC00000
00000FFFC00000
00000FFFC00000
00000FFFC00000
00000FFFC00000
00000FFFC00000
00000FFFC00000
00000FFFC00000
00000FFFC00000
00000FFFC00000
00000FFFC00000
00000FFFC00000
ENDCHAR
STARTCHAR 005A
ENCODING 90
SWIDTH 693 0
DWIDTH 52 0
BBX 46 53 3 0
BITMAP
7FFFFFFFFFFC
7FFFFFFFFFFC
7FFFFFFFFFFC
7FFFFFFFFFFC
7FFFFFFFFFFC
7FFFFFFFFFFC
7FFFFFFFFFFC
7FFFFFFFFFFC
7FFFFFFFFFFC
7FFFFFFFFFFC
7FFFFFFFFFFC
7FFFFFFFFFFC
0000003FFFF8
0000007FFFF0
000000FFFFE0
000001FFFFC0
000003FFFF80
000003FFFF80
000007FFFF00
00000FFFFE00
00001FFFFC00
00003FFFF800
00007FFFF000
0000FFFFE000
0001FFFFC000
0001FFFFC000
0003FFFF8000
0007FFFF0000
000FFFFE0000
001FFFFC0000
003FFFF80000
007FFFF00000
00FFFFF00000
00FFFFE00000
01FFFFC00000
03FFFF800000
07FFFF000000
0FFFFE000000
1FFFFC000000
3FFFF8000000
7FFFF8000000
7FFFFFFFFFFC
FFFFFFFFFFFC
FFFFFFFFFFFC
FFFFFFFFFFFC
FFFFFFFFFFFC
FFFFFFFFFFFC
FFFFFFFFFFFC
FFFFFFFFFFFC
FFFFFFFFFFFC
FFFFFFFFFFFC
FFFFFFFFFFFC
FFFFFFFFFFFC
ENDCHAR
STARTCHAR 005B
ENCODING 91
SWIDTH 453 0
DWIDTH 34 0
BBX 26 63 5 -10
BITMAP
FFFFFFC0
FFFFFFC0
FFFFFFC0
FFFFFFC0
FFFFFFC0
FFFFFFC0
FFFFFFC0
FFFFFFC0
FFFFFFC0
FFFFFFC0
FFF80000
FFF80000
FFF80000
FFF80000
FFF80000
FFF80000
FFF80000
FFF80000
FFF80000
FFF80000
FFF80000
FFF80000
FFF80000
FFF80000
FFF80000
FFF80000
FFF80000
FFF80000
FFF80000
FFF80000
FFF80000
FFF80000
FFF80000
FFF80000
FFF80000
FFF80000
FFF80000
FFF80000
FFF80000
FFF80000
FFF80000
FFF80000
FFF80000
FFF80000
FFF80000
FFF80000
FFF80000
FFF80000
FFF80000
FFF80000
FFF80000
FFF80000
FFF80000
FFFFFFC0
FFFFFFC0
FFFFFFC0
FFFFFFC0
FFFFFFC0
FFFFFFC0
FFFFFFC0
FFFFFFC0
FFFFFFC0
FFFFFFC0
ENDCHAR
STARTCHAR 005C
ENCODING 92
SWIDTH 533 0
DWIDTH 40 0
BBX 45 70 -2 -10
BITMAP
FFF000000000
7FF000000000
7FF800000000
3FF800000000
3FFC00000000
1FFC00000000
1FFE00000000
0FFE00000000
0FFF00000000
07FF00000000
07FF80000000
03FF80000000
03FFC0000000
01FFC0000000
01FFE0000000
00FFE0000000
00FFF0000000
007FF0000000
007FF8000000
007FF8000000
003FF8000000
003FFC000000
001FFC000000
001FFE000000
000FFE000000
000FFF000000
0007FF000000
0007FF800000
0003FF800000
0003FFC00000
0001FFC00000
0001FFE00000
0000FFE00000
0000FFF00000
00007FF00000
00007FF80000
00003FF80000
00003FFC0000
00003FFC0000
00001FFC0000
00001FFE0000
00000FFE0000
00000FFF0000
000007FF0000
000007FF8000
000003FF8000
000003FFC000
000001FFC000
000001FFE000
000000FFE000
000000FFF000
0000007FF000
0000007FF800
0000003FF800
0000003FFC00
0000001FFC00
0000001FFE00
0000001FFE00
0000000FFF00
0000000FFF00
00000007FF00
00000007FF80
00000003FF80
00000003FFC0
00000001FFC0
00000001FFE0
00000000FFE0
00000000FFF0
000000007FF0
000000007FF8
ENDCHAR
STARTCHAR 005D
ENCODING 93
SWIDTH 453 0
DWIDTH 34 0
BBX 26 63 3 -10
BITMAP
FFFFFFC0
FFFFFFC0
FFFFFFC0
FFFFFFC0
FFFFFFC0
FFFFFFC0
FFFFFFC0
FFFFFFC0
FFFFFFC0
FFFFFFC0
0003FFC0
0003FFC0
0003FFC0
0003FFC0
0003FFC0
0003FFC0
0003FFC0
0003FFC0
0003FFC0
0003FFC0
0003FFC0
0003FFC0
0003FFC0
0003FFC0
0003FFC0
0003FFC0
0003FFC0
0003FFC0
0003FFC0
0003FFC0
0003FFC0
0003FFC0
0003FFC0
0003FFC0
0003FFC0
0003FFC0
0003FFC0
0003FFC0
0003FFC0
0003FFC0
0003FFC0
0003FFC0
0003FFC0
0003FFC0
0003FFC0
0003FFC0
0003FFC0
0003FFC0
0003FFC0
0003FFC0
0003FFC0
0003FFC0
0003FFC0
FFFFFFC0
FFFFFFC0
FFFFFFC0
FFFFFFC0
FFFFFFC0
FFFFFFC0
FFFFFFC0
FFFFFFC0
FFFFFFC0
FFFFFFC0
ENDCHAR
STARTCHAR 005E
ENCODING 94
SWIDTH 506 0
DWIDTH 38 0
BBX 31 15 3 37
BITMAP
001FF800
003FFC00
007FFC00
00FFFE00
00FFFF00
01FFFF80
03FFFF80
03FFFFC0
07FEFFE0
0FFC7FE0
1FFC3FF0
1FF81FF8
3FF01FFC
7FE00FFC
FFC007FE
ENDCHAR
STARTCHAR 005F
ENCODING 95
SWIDTH 600 0
DWIDTH 45 0
BBX 45 9 0 -12
BITMAP
FFFFFFFFFFF8
FFFFFFFFFFF8
FFFFFFFFFFF8
FFFFFFFFFFF8
FFFFFFFFFFF8
FFFFFFFFFFF8
FFFFFFFFFFF8
FFFFFFFFFFF8
FFFFFFFFFFF8
ENDCHAR
STARTCHAR 0060
ENCODING 96
SWIDTH 506 0
DWIDTH 38 0
BBX 21 14 7 44
BITMAP
001800
00FC00
07FC00
3FFE00
FFFE00
7FFF00
3FFF00
1FFF80
0FFFC0
03FFC0
01FFE0
00FFE0
007FF0
003FF8
ENDCHAR
STARTCHAR 0061
ENCODING 97
SWIDTH 600 0
DWIDTH 45 0
BBX 39 42 2 -1
BITMAP
0007FFC000
00FFFFF800
07FFFFFF00
1FFFFFFF80
0FFFFFFFE0
0FFFFFFFF0
0FFFFFFFF0
07FFFFFFF8
07FFFFFFFC
07FFFFFFFC
07FFFFFFFC
03F007FFFE
030001FFFE
000000FFFE
0000007FFE
0000007FFE
001FF87FFE
01FFFFFFFE
07FFFFFFFE
0FFFFFFFFE
1FFFFFFFFE
3FFFFFFFFE
7FFFFFFFFE
7FFF80FFFE
FFFE003FFE
FFFC003FFE
FFFC003FFE
FFFC007FFE
FFFC007FFE
FFFC007FFE
FFFC00FFFE
FFFE01FFFE
FFFF07FFFE
FFFFFFFFFE
7FFFFFFFFE
7FFFFFFFFE
3FFFFFFFFE
1FFFFFFFFE
1FFFFF7FFE
07FFFC7FFE
03FFF87FFE
007FC00000
ENDCHAR
STARTCHAR 0062
ENCODING 98
SWIDTH 680 0
DWIDTH 51 0
BBX 44 56 4 -1
BITMAP
FFFC00000000
FFFC00000000
FFFC00000000
FFFC00000000
FFFC00000000
FFFC00000000
FFFC00000000
FFFC00000000
FFFC00000000
FFFC00000000
FFFC00000000
FFFC00000000
FFFC00000000
FFFC00000000
FFFC03FC0000
FFFC0FFF8000
FFFC3FFFE000
FFFC7FFFF800
FFFCFFFFFC00
FFFDFFFFFE00
FFFFFFFFFF00
FFFFFFFFFF00
FFFFFFFFFF80
FFFFFFFFFFC0
FFFFFFFFFFC0
FFFFFFFFFFE0
FFFFE07FFFE0
FFFF801FFFE0
FFFF000FFFF0
FFFE0007FFF0
FFFE0007FFF0
FFFC0003FFF0
FFFC0003FFF0
FFFC0003FFF0
FFFC0003FFF0
FFFC0003FFF0
FFFC0003FFF0
FFFC0003FFF0
FFFC0003FFF0
FFFE0007FFF0
FFFE0007FFF0
FFFF000FFFF0
FFFF801FFFE0
FFFFE07FFFE0
FFFFFFFFFFE0
FFFFFFFFFFC0
FFFFFFFFFFC0
FFFFFFFFFF80
FFFFFFFFFF80
FFFFFFFFFF00
FFFFFFFFFE00
FFFDFFFFFC00
FFFCFFFFF800
FFFC3FFFE000
FFFC1FFF8000
000003FE0000
ENDCHAR
STARTCHAR 0063
ENCODING 99
SWIDTH 573 0
DWIDTH 43 0
BBX 39 42 2 -1
BITMAP
00007FE000
0003FFFC00
001FFFFF00
003FFFFFC0
00FFFFFFE0
01FFFFFFF0
03FFFFFFF8
07FFFFFFFC
0FFFFFFFFE
0FFFFFFFFE
1FFFFFFFF8
3FFFFFFFF0
3FFFE07FE0
3FFF801F80
7FFF000F00
7FFF000600
7FFE000000
FFFE000000
FFFC000000
FFFC000000
FFFC000000
FFFC000000
FFFC000000
FFFC000000
FFFE000000
7FFE000000
7FFF000600
7FFF000F00
7FFF801FC0
3FFFE07FE0
3FFFFFFFF0
1FFFFFFFFC
0FFFFFFFFE
0FFFFFFFFE
07FFFFFFFC
03FFFFFFF8
01FFFFFFF0
00FFFFFFE0
007FFFFFC0
001FFFFF00
0007FFFC00
00007FE000
ENDCHAR
STARTCHAR 0064
ENCODING 100
SWIDTH 680 0
DWIDTH 51 0
BBX 45 56 2 -1
BITMAP
00000001FFF8
00000001FFF8
00000001FFF8
00000001FFF8
00000001FFF8
00000001FFF8
00000001FFF8
00000001FFF8
00000001FFF8
00000001FFF8
00000001FFF8
00000001FFF8
00000001FFF8
00000001FFF8
0003FC01FFF8
001FFF81FFF8
007FFFE1FFF8
00FFFFF1FFF8
01FFFFF9FFF8
03FFFFFDFFF8
07FFFFFFFFF8
0FFFFFFFFFF8
1FFFFFFFFFF8
1FFFFFFFFFF8
3FFFFFFFFFF8
3FFFFFFFFFF8
3FFFF07FFFF8
7FFFC01FFFF8
7FFF800FFFF8
7FFF0007FFF8
7FFE0003FFF8
7FFE0003FFF8
FFFE0001FFF8
FFFC0001FFF8
FFFC0001FFF8
FFFC0001FFF8
FFFC0001FFF8
FFFE0001FFF8
7FFE0003FFF8
7FFE0003FFF8
7FFF0007FFF8
7FFF800FFFF8
7FFFC01FFFF8
3FFFF07FFFF8
3FFFFFFFFFF8
3FFFFFFFFFF8
1FFFFFFFFFF8
0FFFFFFFFFF8
0FFFFFFFFFF8
07FFFFFFFFF8
03FFFFFDFFF8
01FFFFF9FFF8
00FFFFF1FFF8
007FFFE1FFF8
001FFF81FFF8
0003FE000000
ENDCHAR
STARTCHAR 0065
ENCODING 101
SWIDTH 600 0
DWIDTH 45 0
BBX 41 42 2 -1
BITMAP
0000FFC00000
0007FFF80000
001FFFFE0000
007FFFFF8000
00FFFFFFC000
01FFFFFFE000
03FFFFFFF000
07FFFFFFF800
0FFFFFFFF800
1FFFFFFFFC00
1FFFFFFFFE00
3FFFC1FFFE00
3FFF007FFE00
7FFF003FFF00
7FFE001FFF00
7FFC001FFF00
7FFC000FFF80
FFFC000FFF80
FFFFFFFFFF80
FFFFFFFFFF80
FFFFFFFFFF80
FFFFFFFFFF80
FFFFFFFFFF80
FFFFFFFFFF80
FFFFFFFFFF80
7FFC00000000
7FFC00000000
7FFE00010000
7FFF0003C000
3FFF800FE000
3FFFE03FF000
1FFFFFFFF800
1FFFFFFFFC00
0FFFFFFFFF00
07FFFFFFFE00
03FFFFFFFC00
01FFFFFFF800
00FFFFFFF000
007FFFFFC000
001FFFFF8000
0007FFFE0000
00007FE00000
ENDCHAR
STARTCHAR 0066
ENCODING 102
SWIDTH 400 0
DWIDTH 30 0
BBX 28 55 2 0
BITMAP
0003FF80
001FFFF0
007FFFF0
00FFFFF0
01FFFFF0
03FFFFF0
03FFFFF0
07FFFFF0
07FFFFF0
07FFFFF0
07FFFFF0
0FFFF000
0FFFE000
0FFFC000
0FFFC000
FFFFFFF0
FFFFFFF0
FFFFFFF0
FFFFFFF0
FFFFFFF0
FFFFFFF0
FFFFFFF0
FFFFFFF0
FFFFFFF0
FFFFFFF0
FFFFFFF0
0FFFE000
0FFFE000
0FFFE000
0FFFE000
0FFFE000
0FFFE000
0FFFE000
0FFFE000
0FFFE000
0FFFE000
0FFFE000
0FFFE000
0FFFE000
0FFFE000
0FFFE000
0FFFE000
0FFFE000
0FFFE000
0FFFE000
0FFFE000
0FFFE000
0FFFE000
0FFFE000
0FFFE000
0FFFE000
0FFFE000
0FFFE000
0FFFE000
0FFFE000
ENDCHAR
STARTCHAR 0067
ENCODING 103
SWIDTH 680 0
DWIDTH 51 0
BBX 45 54 2 -13
BITMAP
0003FC01FFF8
001FFF81FFF8
007FFFE1FFF8
01FFFFF1FFF8
03FFFFF9FFF8
07FFFFFDFFF8
0FFFFFFFFFF8
1FFFFFFFFFF8
1FFFFFFFFFF8
3FFFFFFFFFF8
3FFFFFFFFFF8
7FFFE03FFFF8
7FFF800FFFF8
7FFF0007FFF8
7FFE0003FFF8
FFFE0003FFF8
FFFE0001FFF8
FFFC0001FFF8
FFFC0001FFF8
FFFC0001FFF8
FFFC0001FFF8
7FFE0003FFF8
7FFE0003FFF8
7FFF0007FFF8
7FFF800FFFF8
7FFFE03FFFF8
3FFFFFFFFFF8
3FFFFFFFFFF8
1FFFFFFFFFF8
1FFFFFFFFFF8
0FFFFFFFFFF8
07FFFFFDFFF8
03FFFFF9FFF8
01FFFFF1FFF8
007FFFE1FFF8
001FFF81FFF8
0003FE03FFF8
00000003FFF0
00000003FFF0
02000007FFF0
0780000FFFF0
07E0001FFFF0
0FFE00FFFFE0
0FFFFFFFFFE0
0FFFFFFFFFC0
1FFFFFFFFFC0
1FFFFFFFFF80
3FFFFFFFFF00
3FFFFFFFFE00
7FFFFFFFFC00
0FFFFFFFF800
01FFFFFFE000
003FFFFF8000
0001FFF00000
ENDCHAR
STARTCHAR 0068
ENCODING 104
SWIDTH 640 0
DWIDTH 48 0
BBX 40 55 4 0
BITMAP
FFFC000000
FFFC000000
FFFC000000
FFFC000000
FFFC000000
FFFC000000
FFFC000000
FFFC000000
FFFC000000
FFFC000000
FFFC000000
FFFC000000
FFFC000000
FFFC000000
FFFC03FC00
FFFC0FFF80
FFFC3FFFE0
FFFC7FFFF0
FFFCFFFFF8
FFFDFFFFFC
FFFFFFFFFC
FFFFFFFFFE
FFFFFFFFFE
FFFFFFFFFE
FFFFFFFFFF
FFFFFFFFFF
FFFFC3FFFF
FFFF00FFFF
FFFE007FFF
FFFE007FFF
FFFC003FFF
FFFC003FFF
FFFC003FFF
FFFC003FFF
FFFC003FFF
FFFC003FFF
FFFC003FFF
FFFC003FFF
FFFC003FFF
FFFC003FFF
FFFC003FFF
FFFC003FFF
FFFC003FFF
FFFC003FFF
FFFC003FFF
FFFC003FFF
FFFC003FFF
FFFC003FFF
FFFC003FFF
FFFC003FFF
FFFC003FFF
FFFC003FFF
FFFC003FFF
FFFC003FFF
FFFC003FFF
ENDCHAR
STARTCHAR 0069
ENCODING 105
SWIDTH 306 0
DWIDTH 23 0
BBX 15 55 4 0
BITMAP
FFFE
FFFE
FFFE
FFFE
FFFE
FFFE
FFFE
FFFE
FFFE
FFFE
FFFE
0000
0000
0000
FFFC
FFFC
FFFC
FFFC
FFFC
FFFC
FFFC
FFFC
FFFC
FFFC
FFFC
FFFC
FFFC
FFFC
FFFC
FFFC
FFFC
FFFC
FFFC
FFFC
FFFC
FFFC
FFFC
FFFC
FFFC
FFFC
FFFC
FFFC
FFFC
FFFC
FFFC
FFFC
FFFC
FFFC
FFFC
FFFC
FFFC
FFFC
FFFC
FFFC
FFFC
ENDCHAR
STARTCHAR 006A
ENCODING 106
SWIDTH 306 0
DWIDTH 23 0
BBX 21 67 -2 -12
BITMAP
03FFF8
03FFF8
03FFF8
03FFF8
03FFF8
03FFF8
03FFF8
03FFF8
03FFF8
03FFF8
03FFF8
000000
000000
000000
03FFF0
03FFF0
03FFF0
03FFF0
03FFF0
03FFF0
03FFF0
03FFF0
03FFF0
03FFF0
03FFF0
03FFF0
03FFF0
03FFF0
03FFF0
03FFF0
03FFF0
03FFF0
03FFF0
03FFF0
03FFF0
03FFF0
03FFF0
03FFF0
03FFF0
03FFF0
03FFF0
03FFF0
03FFF0
03FFF0
03FFF0
03FFF0
03FFF0
03FFF0
03FFF0
03FFF0
03FFF0
03FFF0
03FFF0
03FFF0
03FFF0
03FFF0
07FFF0
BFFFF0
FFFFF0
FFFFE0
FFFFE0
FFFFC0
FFFFC0
FFFF80
FFFF00
FFFC00
FFE000
ENDCHAR
STARTCHAR 006B
ENCODING 107
SWIDTH 600 0
DWIDTH 45 0
BBX 42 55 4 0
BITMAP
FFFC00000000
FFFC00000000
FFFC00000000
FFFC00000000
FFFC00000000
FFFC00000000
FFFC00000000
FFFC00000000
FFFC00000000
FFFC00000000
FFFC00000000
FFFC00000000
FFFC00000000
FFFC00000000
FFFC007FFF80
FFFC00FFFF00
FFFC01FFFE00
FFFC03FFFC00
FFFC03FFFC00
FFFC07FFF800
FFFC0FFFF000
FFFC1FFFE000
FFFC3FFFC000
FFFC3FFF8000
FFFC7FFF0000
FFFCFFFF0000
FFFDFFFE0000
FFFFFFFC0000
FFFFFFF80000
FFFFFFF00000
FFFFFFE00000
FFFFFFF00000
FFFFFFF00000
FFFFFFF80000
FFFFFFF80000
FFFFFFFC0000
FFFFFFFE0000
FFFFFFFE0000
FFFFFFFF0000
FFFFFFFF0000
FFFFFFFF8000
FFFFBFFFC000
FFFF9FFFC000
FFFF1FFFE000
FFFE0FFFE000
FFFC0FFFF000
FFFC07FFF800
FFFC07FFF800
FFFC03FFFC00
FFFC01FFFC00
FFFC01FFFE00
FFFC00FFFF00
FFFC00FFFF00
FFFC007FFF80
FFFC003FFFC0
ENDCHAR
STARTCHAR 006C
ENCODING 108
SWIDTH 306 0
DWIDTH 23 0
BBX 14 55 4 0
BITMAP
FFFC
FFFC
FFFC
FFFC
FFFC
FFFC
FFFC
FFFC
FFFC
FFFC
FFFC
FFFC
FFFC
FFFC
FFFC
FFFC
FFFC
FFFC
FFFC
FFFC
FFFC
FFFC
FFFC
FFFC
FFFC
FFFC
FFFC
FFFC
FFFC
FFFC
FFFC
FFFC
FFFC
FFFC
FFFC
FFFC
FFFC
FFFC
FFFC
FFFC
FFFC
FFFC
FFFC
FFFC
FFFC
FFFC
FFFC
FFFC
FFFC
FFFC
FFFC
FFFC
FFFC
FFFC
FFFC
ENDCHAR
STARTCHAR 006D
ENCODING 109
SWIDTH 973 0
DWIDTH 73 0
BBX 65 41 4 0
BITMAP
FFFC03FC0001FF0000
FFFC0FFF800FFFC000
FFFC3FFFE03FFFF000
FFFC7FFFF07FFFF800
FFFCFFFFF8FFFFFC00
FFFDFFFFF9FFFFFE00
FFFFFFFFFFFFFFFF00
FFFFFFFFFFFFFFFF00
FFFFFFFFFFFFFFFF00
FFFFFFFFFFFFFFFF80
FFFFFFFFFFFFFFFF80
FFFFFFFFFFFFFFFF80
FFFF83FFFFE0FFFF80
FFFF00FFFFC07FFF80
FFFE00FFFF803FFF80
FFFE007FFF001FFF80
FFFC007FFF001FFF80
FFFC007FFF001FFF80
FFFC007FFF001FFF80
FFFC007FFF001FFF80
FFFC007FFF001FFF80
FFFC007FFF001FFF80
FFFC007FFF001FFF80
FFFC007FFF001FFF80
FFFC007FFF001FFF80
FFFC007FFF001FFF80
FFFC007FFF001FFF80
FFFC007FFF001FFF80
FFFC007FFF001FFF80
FFFC007FFF001FFF80
FFFC007FFF001FFF80
FFFC007FFF001FFF80
FFFC007FFF001FFF80
FFFC007FFF001FFF80
FFFC007FFF001FFF80
FFFC007FFF001FFF80
FFFC007FFF001FFF80
FFFC007FFF001FFF80
FFFC007FFF001FFF80
FFFC007FFF001FFF80
FFFC007FFF001FFF80
ENDCHAR
STARTCHAR 006E
ENCODING 110
SWIDTH 640 0
DWIDTH 48 0
BBX 40 41 4 0
BITMAP
FFFC03FC00
FFFC0FFF80
FFFC3FFFE0
FFFC7FFFF0
FFFCFFFFF8
FFFDFFFFFC
FFFFFFFFFC
FFFFFFFFFE
FFFFFFFFFE
FFFFFFFFFE
FFFFFFFFFF
FFFFFFFFFF
FFFFC3FFFF
FFFF00FFFF
FFFE007FFF
FFFE007FFF
FFFC003FFF
FFFC003FFF
FFFC003FFF
FFFC003FFF
FFFC003FFF
FFFC003FFF
FFFC003FFF
FFFC003FFF
FFFC003FFF
FFFC003FFF
FFFC003FFF
FFFC003FFF
FFFC003FFF
FFFC003FFF
FFFC003FFF
FFFC003FFF
FFFC003FFF
FFFC003FFF
FFFC003FFF
FFFC003FFF
FFFC003FFF
FFFC003FFF
FFFC003FFF
FFFC003FFF
FFFC003FFF
ENDCHAR
STARTCHAR 006F
ENCODING 111
SWIDTH 653 0
DWIDTH 49 0
BBX 45 42 2 -1
BITMAP
00003FF00000
0003FFFE0000
000FFFFF8000
003FFFFFE000
007FFFFFF800
01FFFFFFFC00
03FFFFFFFE00
07FFFFFFFF00
0FFFFFFFFF80
0FFFFFFFFFC0
1FFFFFFFFFC0
1FFFFFFFFFE0
3FFFF07FFFE0
3FFFC01FFFF0
7FFF000FFFF0
7FFF0007FFF0
7FFE0003FFF8
FFFE0001FFF8
FFFC0001FFF8
FFFC0001FFF8
FFFC0001FFF8
FFFC0001FFF8
FFFC0001FFF8
FFFC0001FFF8
FFFE0001FFF8
7FFE0003FFF8
7FFF0003FFF0
7FFF8007FFF0
7FFFC00FFFF0
3FFFF03FFFE0
3FFFFFFFFFE0
1FFFFFFFFFC0
0FFFFFFFFF80
0FFFFFFFFF80
07FFFFFFFF00
03FFFFFFFE00
01FFFFFFFC00
00FFFFFFF800
003FFFFFE000
000FFFFF8000
0003FFFE0000
00007FF00000
ENDCHAR
STARTCHAR 0070
ENCODING 112
SWIDTH 680 0
DWIDTH 51 0
BBX 44 53 4 -12
BITMAP
FFFC03FC0000
FFFC0FFF8000
FFFC3FFFE000
FFFC7FFFF800
FFFCFFFFFC00
FFFDFFFFFE00
FFFFFFFFFF00
FFFFFFFFFF00
FFFFFFFFFF80
FFFFFFFFFFC0
FFFFFFFFFFC0
FFFFFFFFFFE0
FFFFE07FFFE0
FFFF801FFFE0
FFFF000FFFF0
FFFE0007FFF0
FFFE0007FFF0
FFFC0003FFF0
FFFC0003FFF0
FFFC0003FFF0
FFFC0003FFF0
FFFC0003FFF0
FFFC0003FFF0
FFFC0003FFF0
FFFC0003FFF0
FFFE0007FFF0
FFFE0007FFF0
FFFF000FFFF0
FFFF801FFFE0
FFFFE07FFFE0
FFFFFFFFFFE0
FFFFFFFFFFC0
FFFFFFFFFFC0
FFFFFFFFFF80
FFFFFFFFFF80
FFFFFFFFFF00
FFFFFFFFFE00
FFFDFFFFFC00
FFFCFFFFF800
FFFC3FFFE000
FFFC1FFF8000
FFFC03FE0000
FFFC00000000
FFFC00000000
FFFC00000000
FFFC00000000
FFFC00000000
FFFC00000000
FFFC00000000
FFFC00000000
FFFC00000000
FFFC00000000
FFFC00000000
ENDCHAR
STARTCHAR 0071
ENCODING 113
SWIDTH 680 0
DWIDTH 51 0
BBX 45 53 2 -12
BITMAP
0003FC01FFF8
001FFF81FFF8
007FFFE1FFF8
00FFFFF1FFF8
01FFFFF9FFF8
03FFFFFDFFF8
07FFFFFFFFF8
0FFFFFFFFFF8
1FFFFFFFFFF8
1FFFFFFFFFF8
3FFFFFFFFFF8
3FFFFFFFFFF8
3FFFF07FFFF8
7FFFC01FFFF8
7FFF800FFFF8
7FFF0007FFF8
7FFE0003FFF8
7FFE0003FFF8
FFFE0001FFF8
FFFC0001FFF8
FFFC0001FFF8
FFFC0001FFF8
FFFC0001FFF8
FFFE0001FFF8
7FFE0003FFF8
7FFE0003FFF8
7FFF0007FFF8
7FFF800FFFF8
7FFFC01FFFF8
3FFFF07FFFF8
3FFFFFFFFFF8
3FFFFFFFFFF8
1FFFFFFFFFF8
0FFFFFFFFFF8
0FFFFFFFFFF8
07FFFFFFFFF8
03FFFFFDFFF8
01FFFFF9FFF8
00FFFFF1FFF8
007FFFE1FFF8
001FFF81FFF8
0003FE01FFF8
00000001FFF8
00000001FFF8
00000001FFF8
00000001FFF8
00000001FFF8
00000001FFF8
00000001FFF8
00000001FFF8
00000001FFF8
00000001FFF8
00000001FFF8
ENDCHAR
STARTCHAR 0072
ENCODING 114
SWIDTH 426 0
DWIDTH 32 0
BBX 27 42 4 0
BITMAP
000001E0
FFFC0FE0
FFFC1FE0
FFFC3FE0
FFFC7FE0
FFFCFFE0
FFFDFFE0
FFFDFFE0
FFFFFFE0
FFFFFFE0
FFFFFFE0
FFFFFFE0
FFFFFFE0
FFFFFFE0
FFFFFFE0
FFFFFC00
FFFFE000
FFFFC000
FFFF8000
FFFF0000
FFFF0000
FFFE0000
FFFE0000
FFFE0000
FFFC0000
FFFC0000
FFFC0000
FFFC0000
FFFC0000
FFFC0000
FFFC0000
FFFC0000
FFFC0000
FFFC0000
FFFC0000
FFFC0000
FFFC0000
FFFC0000
FFFC0000
FFFC0000
FFFC0000
FFFC0000
ENDCHAR
STARTCHAR 0073
ENCODING 115
SWIDTH 520 0
DWIDTH 39 0
BBX 36 42 1 -1
BITMAP
0007FE0000
003FFFE000
00FFFFFC00
03FFFFFF00
07FFFFFFC0
0FFFFFFFE0
1FFFFFFFC0
1FFFFFFFC0
3FFFFFFF80
3FFFFFFF80
3FFFFFFF00
3FFE03FE00
3FFE007E00
3FFE001C00
3FFE000400
3FFFC00000
3FFFF80000
1FFFFF8000
1FFFFFE000
0FFFFFFC00
07FFFFFE00
03FFFFFF00
00FFFFFF80
003FFFFFC0
0007FFFFE0
0000FFFFE0
08000FFFE0
0E0003FFE0
0F8001FFF0
1FE001FFF0
1FFE03FFE0
3FFFFFFFE0
7FFFFFFFE0
7FFFFFFFE0
FFFFFFFFC0
FFFFFFFFC0
7FFFFFFF80
1FFFFFFF00
0FFFFFFE00
01FFFFFC00
007FFFF000
0007FF0000
ENDCHAR
STARTCHAR 0074
ENCODING 116
SWIDTH 426 0
DWIDTH 32 0
BBX 28 52 2 -1
BITMAP
0FFFE000
0FFFE000
0FFFE000
0FFFE000
0FFFE000
0FFFE000
0FFFE000
0FFFE000
0FFFE000
0FFFE000
FFFFFFF0
FFFFFFF0
FFFFFFF0
FFFFFFF0
FFFFFFF0
FFFFFFF0
FFFFFFF0
FFFFFFF0
FFFFFFF0
FFFFFFF0
FFFFFFF0
0FFFE000
0FFFE000
0FFFE000
0FFFE000
0FFFE000
0FFFE000
0FFFE000
0FFFE000
0FFFE000
0FFFE000
0FFFE000
0FFFE000
0FFFE000
0FFFE000
0FFFE000
0FFFE000
0FFFE000
0FFFE010
0FFFF070
0FFFFFF0
07FFFFF0
07FFFFF0
07FFFFF0
07FFFFF0
03FFFFF0
03FFFFF0
01FFFFF0
00FFFFF0
007FFFF0
003FFFC0
0007FE00
ENDCHAR
STARTCHAR 0075
ENCODING 117
SWIDTH 640 0
DWIDTH 48 0
BBX 40 42 4 -1
BITMAP
FFFC007FFF
FFFC007FFF
FFFC007FFF
FFFC007FFF
FFFC007FFF
FFFC007FFF
FFFC007FFF
FFFC007FFF
FFFC007FFF
FFFC007FFF
FFFC007FFF
FFFC007FFF
FFFC007FFF
FFFC007FFF
FFFC007FFF
FFFC007FFF
FFFC007FFF
FFFC007FFF
FFFC007FFF
FFFC007FFF
FFFC007FFF
FFFC007FFF
FFFC007FFF
FFFC007FFF
FFFC007FFF
FFFC007FFF
FFFC007FFF
FFFE00FFFF
FFFF01FFFF
FFFF83FFFF
FFFFFFFFFF
FFFFFFFFFF
FFFFFFFFFF
7FFFFFFFFF
7FFFFFFFFF
7FFFFFFFFF
3FFFFFFFFF
1FFFFF7FFF
0FFFFE7FFF
07FFFC7FFF
03FFF07FFF
007F800000
ENDCHAR
STARTCHAR 0076
ENCODING 118
SWIDTH 626 0
DWIDTH 47 0
BBX 45 41 1 0
BITMAP
FFFE0003FFF8
FFFE0003FFF8
7FFF0003FFF0
7FFF0007FFF0
3FFF0007FFE0
3FFF8007FFE0
3FFF800FFFE0
1FFF800FFFC0
1FFFC00FFFC0
1FFFC01FFF80
0FFFC01FFF80
0FFFE01FFF80
07FFE03FFF00
07FFE03FFF00
07FFE03FFE00
03FFF07FFE00
03FFF07FFE00
01FFF07FFC00
01FFF8FFFC00
01FFF8FFF800
00FFF8FFF800
00FFFDFFF800
007FFDFFF000
007FFDFFF000
007FFFFFE000
003FFFFFE000
003FFFFFE000
001FFFFFC000
001FFFFFC000
001FFFFF8000
000FFFFF8000
000FFFFF8000
0007FFFF0000
0007FFFF0000
0007FFFF0000
0003FFFE0000
0003FFFE0000
0001FFFC0000
0001FFFC0000
0001FFFC0000
0000FFF80000
ENDCHAR
STARTCHAR 0077
ENCODING 119
SWIDTH 866 0
DWIDTH 65 0
BBX 63 41 1 0
BITMAP
FFFC007FF8007FFE
FFFC007FFC007FFC
7FFC007FFC00FFFC
7FFE00FFFC00FFFC
7FFE00FFFE00FFF8
3FFE00FFFE01FFF8
3FFF01FFFE01FFF8
3FFF01FFFE01FFF0
3FFF01FFFF01FFF0
1FFF01FFFF03FFF0
1FFF83FFFF03FFF0
1FFF83FFFF83FFE0
0FFF83FFFF83FFE0
0FFF87FFFF87FFE0
0FFFC7FFFFC7FFC0
07FFC7FFFFC7FFC0
07FFCFFFFFC7FFC0
07FFCFFFFFEFFF80
07FFEFFFFFEFFF80
03FFFFFFFFEFFF80
03FFFFFFFFEFFF00
03FFFFFEFFFFFF00
01FFFFFCFFFFFF00
01FFFFFCFFFFFF00
01FFFFFC7FFFFE00
00FFFFF87FFFFE00
00FFFFF87FFFFE00
00FFFFF83FFFFC00
007FFFF83FFFFC00
007FFFF03FFFFC00
007FFFF01FFFF800
007FFFF01FFFF800
003FFFE01FFFF800
003FFFE01FFFF000
003FFFE00FFFF000
001FFFC00FFFF000
001FFFC00FFFF000
001FFFC007FFE000
000FFF8007FFE000
000FFF8007FFE000
000FFF8003FFC000
ENDCHAR
STARTCHAR 0078
ENCODING 120
SWIDTH 586 0
DWIDTH 44 0
BBX 43 41 1 0
BITMAP
FFFF001FFFC0
7FFF003FFF80
7FFF803FFF80
3FFF807FFF00
1FFFC07FFE00
1FFFC0FFFE00
0FFFE1FFFC00
07FFF1FFF800
07FFF3FFF800
03FFFBFFF000
01FFFFFFE000
01FFFFFFE000
00FFFFFFC000
007FFFFF8000
007FFFFF8000
003FFFFF0000
001FFFFE0000
001FFFFE0000
000FFFFC0000
0007FFF80000
0007FFF80000
000FFFFC0000
000FFFFC0000
001FFFFE0000
003FFFFF0000
003FFFFF0000
007FFFFF8000
00FFFFFFC000
00FFFFFFC000
01FFFFFFE000
01FFFFFFF000
03FFF3FFF000
07FFF3FFF800
07FFE1FFFC00
0FFFE1FFFC00
1FFFC0FFFE00
1FFF807FFF00
3FFF807FFF00
7FFF003FFF80
7FFF003FFFC0
FFFE001FFFE0
ENDCHAR
STARTCHAR 0079
ENCODING 121
SWIDTH 626 0
DWIDTH 47 0
BBX 45 53 1 -12
BITMAP
FFFE0003FFF8
FFFE0003FFF8
7FFF0003FFF0
7FFF0007FFF0
3FFF0007FFE0
3FFF8007FFE0
3FFF800FFFE0
1FFF800FFFC0
1FFFC00FFFC0
0FFFC00FFFC0
0FFFC01FFF80
0FFFE01FFF80
07FFE01FFF00
07FFE03FFF00
03FFF03FFF00
03FFF03FFE00
03FFF07FFE00
01FFF87FFE00
01FFF87FFC00
00FFF8FFFC00
00FFFCFFF800
00FFFCFFF800
007FFDFFF800
007FFFFFF000
007FFFFFF000
003FFFFFF000
003FFFFFE000
001FFFFFE000
001FFFFFC000
001FFFFFC000
000FFFFFC000
000FFFFF8000
0007FFFF8000
0007FFFF8000
0007FFFF0000
0003FFFF0000
0003FFFF0000
0001FFFE0000
0001FFFE0000
0001FFFC0000
0200FFFC0000
07C1FFFC0000
07FFFFF80000
07FFFFF80000
0FFFFFF00000
0FFFFFF00000
1FFFFFE00000
1FFFFFC00000
3FFFFFC00000
3FFFFF800000
0FFFFF000000
03FFFC000000
003FE0000000
ENDCHAR
STARTCHAR 007A
ENCODING 122
SWIDTH 560 0
DWIDTH 42 0
BBX 38 41 2 0
BITMAP
7FFFFFFFFC
7FFFFFFFFC
7FFFFFFFFC
7FFFFFFFFC
7FFFFFFFFC
7FFFFFFFFC
7FFFFFFFFC
7FFFFFFFFC
7FFFFFFFFC
7FFFFFFFFC
7FFFFFFFF8
00001FFFF0
00003FFFE0
00007FFFC0
0000FFFFC0
0001FFFF80
0003FFFF00
0007FFFE00
000FFFFC00
001FFFF800
003FFFF000
007FFFE000
007FFFC000
00FFFF8000
01FFFF0000
03FFFE0000
07FFFC0000
0FFFFC0000
1FFFF80000
3FFFF00000
7FFFFFFFFC
FFFFFFFFFC
FFFFFFFFFC
FFFFFFFFFC
FFFFFFFFFC
FFFFFFFFFC
FFFFFFFFFC
FFFFFFFFFC
FFFFFFFFFC
FFFFFFFFFC
FFFFFFFFFC
ENDCHAR
STARTCHAR 007B
ENCODING 123
SWIDTH 493 0
DWIDTH 37 0
BBX 31 65 3 -11
BITMAP
00000038
000007FC
00003FFC
0000FFFC
0003FFFC
0007FFFE
000FFFFE
001FFFFE
001FFFFE
003FFFF0
003FFF80
003FFF00
007FFE00
007FFE00
007FFC00
007FFC00
007FFC00
007FFC00
003FFC00
003FFC00
003FFC00
003FFC00
007FFC00
007FFC00
007FFC00
00FFFC00
01FFFC00
07FFF800
FFFFF800
FFFFF000
FFFFC000
FFFF8000
FFFC0000
FFFF8000
FFFFC000
FFFFF000
FFFFF000
07FFF800
01FFFC00
00FFFC00
007FFC00
007FFC00
007FFC00
003FFC00
003FFC00
003FFC00
003FFC00
007FFC00
007FFC00
007FFC00
007FFC00
007FFC00
003FFE00
003FFF00
003FFF80
003FFFE0
001FFFFE
001FFFFE
000FFFFE
0007FFFE
0003FFFC
0000FFFC
00003FFC
000007FC
00000038
ENDCHAR
STARTCHAR 007C
ENCODING 124
SWIDTH 360 0
DWIDTH 27 0
BBX 11 70 8 -10
BITMAP
FFE0
FFE0
FFE0
FFE0
FFE0
FFE0
FFE0
FFE0
FFE0
FFE0
FFE0
FFE0
FFE0
FFE0
FFE0
FFE0
FFE0
FFE0
FFE0
FFE0
FFE0
FFE0
FFE0
FFE0
FFE0
FFE0
FFE0
FFE0
FFE0
FFE0
FFE0
FFE0
FFE0
FFE0
FFE0
FFE0
FFE0
FFE0
FFE0
FFE0
FFE0
FFE0
FFE0
FFE0
FFE0
FFE0
FFE0
FFE0
FFE0
FFE0
FFE0
FFE0
FFE0
FFE0
FFE0
FFE0
FFE0
FFE0
FFE0
FFE0
FFE0
FFE0
FFE0
FFE0
FFE0
FFE0
FFE0
FFE0
FFE0
FFE0
ENDCHAR
STARTCHAR 007D
ENCODING 125
SWIDTH 493 0
DWIDTH 37 0
BBX 32 65 2 -11
BITMAP
3C000000
3FC00000
3FFC0000
3FFF0000
7FFF8000
7FFFE000
7FFFF000
7FFFF000
FFFFF800
0FFFF800
01FFFC00
00FFFC00
007FFC00
007FFC00
007FFC00
003FFC00
003FFC00
003FFC00
003FFC00
003FFC00
007FFC00
007FFC00
007FFC00
003FFC00
003FFE00
003FFE00
003FFF00
001FFFE0
001FFFFF
000FFFFF
0007FFFF
0001FFFF
00003FFF
0001FFFF
0007FFFF
000FFFFF
001FFFFF
001FFFE0
003FFF80
003FFE00
003FFE00
007FFE00
007FFC00
007FFC00
007FFC00
003FFC00
003FFC00
003FFC00
003FFC00
003FFC00
007FFC00
007FFC00
007FFC00
00FFFC00
01FFFC00
0FFFF800
7FFFF800
FFFFF800
7FFFF000
7FFFE000
7FFFC000
3FFF0000
3FFC0000
3FE00000
3C000000
ENDCHAR
STARTCHAR 007E
ENCODING 126
SWIDTH 506 0
DWIDTH 38 0
BBX 32 13 3 17
BITMAP
03F80060
07FF00FC
0FFFE1FF
1FFFFFFE
3FFFFFFE
3FFFFFFE
7FFFFFFC
7FFFFFFC
7FFFFFFC
FFFFFFF8
FF87FFF0
7F00FFE0
06001F80
ENDCHAR
ENDFONT
